ZephyrSans_Regular.ufo
<glyph name="exclam" format="2">
  <advance width="266" />
  <unicode hex="0021" />
  <outline>
    <contour>
      <point x="93" y="740" type="line" />
      <point x="173" y="740" type="line" />
      <point x="165" y="210" type="line" />
      <point x="101" y="210" type="line" />
    </contour>
    <contour>
      <point x="133" y="108" type="curve" smooth="yes" />
      <point x="103" y="108" />
      <point x="75" y="87" />
      <point x="75" y="48" type="curve" smooth="yes" />
      <point x="75" y="9" />
      <point x="103" y="-12" />
      <point x="133" y="-12" type="curve" smooth="yes" />
      <point x="161" y="-12" />
      <point x="191" y="9" />
      <point x="191" y="48" type="curve" smooth="yes" />
      <point x="191" y="87" />
      <point x="161" y="108" />
    </contour>
  </outline>
</glyph>
<glyph name="quotedbl" format="2">
  <advance width="756" />
  <unicode hex="0022" />
  <outline>
    <contour>
      <point x="150" y="1550" type="line" />
      <point x="310" y="1550" type="line" />
      <point x="302" y="1102" type="line" />
      <point x="158" y="1102" type="line" />
    </contour>
    <contour>
      <point x="446" y="1550" type="line" />
      <point x="606" y="1550" type="line" />
      <point x="598" y="1102" type="line" />
      <point x="454" y="1102" type="line" />
    </contour>
  </outline>
</glyph>
<glyph name="numbersign" format="2">
  <advance width="1536" />
  <unicode hex="0023" />
  <outline>
    <contour>
      <point x="552" y="1420" type="line" />
      <point x="324" y="-24" type="line" />
      <point x="468" y="-24" type="line" />
      <point x="696" y="1420" type="line" />
    </contour>
    <contour>
      <point x="1068" y="1420" type="line" />
      <point x="840" y="-24" type="line" />
      <point x="984" y="-24" type="line" />
      <point x="1212" y="1420" type="line" />
    </contour>
    <contour>
      <point x="248" y="1100" type="line" />
      <point x="224" y="956" type="line" />
      <point x="1382" y="956" type="line" />
      <point x="1406" y="1100" type="line" />
    </contour>
    <contour>
      <point x="154" y="440" type="line" />
      <point x="130" y="296" type="line" />
      <point x="1288" y="296" type="line" />
      <point x="1312" y="440" type="line" />
    </contour>
  </outline>
</glyph>
<glyph name="ampersand" format="2">
  <advance width="646" />
  <unicode hex="0026" />
  <outline>
    <contour>
      <point x="477" y="589" type="curve" smooth="yes" />
      <point x="477" y="673" />
      <point x="406" y="740" />
      <point x="301" y="740" type="curve" smooth="yes" />
      <point x="195" y="740" />
      <point x="118" y="673" />
      <point x="118" y="570" type="curve" smooth="yes" />
      <point x="118" y="459" />
      <point x="209" y="385" />
      <point x="210" y="384" type="curve" />
      <point x="240" y="340" type="line" />
      <point x="553" y="-3" type="line" />
      <point x="606" y="43" type="line" />
      <point x="298" y="379" type="line" />
      <point x="267" y="420" type="line" />
      <point x="266" y="421" />
      <point x="188" y="484" />
      <point x="188" y="573" type="curve" smooth="yes" />
      <point x="188" y="639" />
      <point x="232" y="675" />
      <point x="300" y="675" type="curve" smooth="yes" />
      <point x="371" y="675" />
      <point x="407" y="636" />
      <point x="407" y="585" type="curve" smooth="yes" />
      <point x="407" y="407" />
      <point x="50" y="403" />
      <point x="50" y="180" type="curve" smooth="yes" />
      <point x="50" y="55" />
      <point x="147" y="-16" />
      <point x="289" y="-16" type="curve" smooth="yes" />
      <point x="488" y="-16" />
      <point x="592" y="131" />
      <point x="592" y="340" type="curve" />
      <point x="521" y="340" type="line" />
      <point x="521" y="150" />
      <point x="429" y="49" />
      <point x="290" y="49" type="curve" smooth="yes" />
      <point x="194" y="49" />
      <point x="127" y="90" />
      <point x="127" y="175" type="curve" smooth="yes" />
      <point x="127" y="375" />
      <point x="477" y="358" />
    </contour>
  </outline>
</glyph>
<glyph name="quotesingle" format="2">
  <advance width="230" />
  <unicode hex="0027" />
  <outline>
    <contour>
      <point x="75" y="775" type="line" />
      <point x="155" y="775" type="line" />
      <point x="151" y="550" type="line" />
      <point x="79" y="550" type="line" />
    </contour>
  </outline>
</glyph>
<glyph name="parenleft" format="2">
  <advance width="361" />
  <unicode hex="0028" />
  <guideline x="565" y="311" angle="120" name="-30deg" identifier="fontra-guideline-0" />
  <outline>
    <contour>
      <point x="145" y="311" type="curve" smooth="yes" />
      <point x="145" y="626" />
      <point x="321" y="734" />
      <point x="321" y="734" type="curve" />
      <point x="287" y="793" type="line" />
      <point x="287" y="793" />
      <point x="65" y="655" />
      <point x="65" y="311" type="curve" smooth="yes" />
      <point x="65" y="-33" />
      <point x="287" y="-171" />
      <point x="287" y="-171" type="curve" />
      <point x="321" y="-112" type="line" />
      <point x="321" y="-112" />
      <point x="145" y="-4" />
    </contour>
  </outline>
</glyph>
<glyph name="parenright" format="2">
  <advance width="361"/>
  <unicode hex="0029"/>
  <outline>
    <contour>
      <point x="216" y="307" type="curve" smooth="yes"/>
      <point x="216" y="616"/>
      <point x="40" y="723"/>
      <point x="40" y="723" type="curve"/>
      <point x="81" y="782" type="line"/>
      <point x="81" y="782"/>
      <point x="301" y="655"/>
      <point x="301" y="307" type="curve" smooth="yes"/>
      <point x="301" y="-41"/>
      <point x="81" y="-168"/>
      <point x="81" y="-168" type="curve"/>
      <point x="40" y="-109" type="line"/>
      <point x="40" y="-109"/>
      <point x="216" y="-2"/>
    </contour>
  </outline>
</glyph>
<glyph name="comma" format="2">
  <advance width="271" />
  <unicode hex="002C" />
  <guideline x="101" y="203" angle="85" name="l" identifier="fontra-guideline-0" />
  <guideline x="221" y="203" angle="75" name="r" identifier="fontra-guideline-1" />
  <outline>
    <contour>
      <point x="132" y="-147" type="line" />
      <point x="75" y="-147" type="line" />
      <point x="96" y="92" type="line" />
      <point x="196" y="92" type="line" />
    </contour>
  </outline>
</glyph>
<glyph name="hyphen" format="2">
  <advance width="600" />
  <unicode hex="002D" />
  <outline>
    <contour>
      <point x="80" y="640" type="line" />
      <point x="520" y="640" type="line" />
      <point x="520" y="510" type="line" />
      <point x="80" y="510" type="line" />
    </contour>
  </outline>
</glyph>
<glyph name="period" format="2">
  <advance width="266" />
  <unicode hex="002E" />
  <outline>
    <contour>
      <point x="191" y="48" type="curve" smooth="yes" />
      <point x="191" y="9" />
      <point x="161" y="-12" />
      <point x="133" y="-12" type="curve" smooth="yes" />
      <point x="103" y="-12" />
      <point x="75" y="9" />
      <point x="75" y="48" type="curve" smooth="yes" />
      <point x="75" y="87" />
      <point x="103" y="108" />
      <point x="133" y="108" type="curve" smooth="yes" />
      <point x="161" y="108" />
      <point x="191" y="87" />
    </contour>
  </outline>
</glyph>
<glyph name="zero" format="2">
  <advance width="670" />
  <unicode hex="0030" />
  <outline>
    <contour>
      <point x="335" y="-12" type="curve" smooth="yes" />
      <point x="165" y="-12" />
      <point x="65" y="123" />
      <point x="65" y="373" type="curve" smooth="yes" />
      <point x="65" y="623" />
      <point x="175" y="758" />
      <point x="335" y="758" type="curve" smooth="yes" />
      <point x="505" y="758" />
      <point x="605" y="623" />
      <point x="605" y="373" type="curve" smooth="yes" />
      <point x="605" y="113" />
      <point x="505" y="-12" />
    </contour>
    <contour>
      <point x="335" y="686" type="curve" smooth="yes" />
      <point x="215" y="686" />
      <point x="145" y="573" />
      <point x="145" y="373" type="curve" smooth="yes" />
      <point x="145" y="173" />
      <point x="205" y="60" />
      <point x="335" y="60" type="curve" smooth="yes" />
      <point x="465" y="60" />
      <point x="525" y="173" />
      <point x="525" y="373" type="curve" smooth="yes" />
      <point x="525" y="573" />
      <point x="465" y="686" />
    </contour>
  </outline>
</glyph>
<glyph name="one" format="2">
  <advance width="403" />
  <unicode hex="0031" />
  <guideline x="70" y="623" angle="30" />
  <guideline x="65" y="537" angle="30" />
  <outline>
    <contour>
      <point x="248" y="0" type="line" />
      <point x="248" y="600" type="line" />
      <point x="251" y="660" type="line" />
      <point x="258" y="654" type="line" />
      <point x="245" y="637" />
      <point x="120" y="557" />
      <point x="65" y="537" type="curve" />
      <point x="65" y="620" type="line" />
      <point x="116" y="639" />
      <point x="208" y="699" />
      <point x="256" y="740" type="curve" />
      <point x="328" y="740" type="line" />
      <point x="328" y="0" type="line" />
    </contour>
  </outline>
</glyph>
<glyph name="two" format="2">
  <advance width="602" />
  <unicode hex="0032" />
  <outline>
    <contour>
      <point x="457" y="560" type="curve" smooth="yes" />
      <point x="457" y="408" />
      <point x="224" y="297" />
      <point x="65" y="72" type="curve" />
      <point x="65" y="0" type="line" />
      <point x="537" y="0" type="line" />
      <point x="537" y="72" type="line" />
      <point x="159" y="72" type="line" />
      <point x="290" y="254" />
      <point x="537" y="370" />
      <point x="537" y="550" type="curve" smooth="yes" />
      <point x="537" y="688" />
      <point x="444" y="757" />
      <point x="302" y="757" type="curve" smooth="yes" />
      <point x="124" y="757" />
      <point x="66" y="591" />
      <point x="66" y="591" type="curve" />
      <point x="125" y="549" type="line" />
      <point x="126" y="550" />
      <point x="173" y="690" />
      <point x="303" y="690" type="curve" smooth="yes" />
      <point x="403" y="690" />
      <point x="457" y="643" />
    </contour>
  </outline>
</glyph>
<glyph name="three" format="2">
  <advance width="585" />
  <unicode hex="0033" />
  <outline>
    <contour>
      <point x="216" y="351" type="line" />
      <point x="380" y="351" />
      <point x="440" y="295" />
      <point x="440" y="210" type="curve" smooth="yes" />
      <point x="440" y="124" />
      <point x="397" y="58" />
      <point x="277" y="57" type="curve" smooth="yes" />
      <point x="147" y="56" />
      <point x="94" y="162" />
      <point x="94" y="163" type="curve" />
      <point x="40" y="119" type="line" />
      <point x="40" y="118" />
      <point x="101" y="-10" />
      <point x="279" y="-10" type="curve" smooth="yes" />
      <point x="441" y="-10" />
      <point x="520" y="89" />
      <point x="520" y="200" type="curve" smooth="yes" />
      <point x="520" y="284" />
      <point x="452" y="391" />
      <point x="328" y="391" type="curve" />
      <point x="328" y="381" type="line" />
      <point x="436" y="381" />
      <point x="495" y="474" />
      <point x="495" y="550" type="curve" smooth="yes" />
      <point x="495" y="688" />
      <point x="404" y="757" />
      <point x="264" y="757" type="curve" smooth="yes" />
      <point x="91" y="757" />
      <point x="40" y="629" />
      <point x="40" y="628" type="curve" />
      <point x="94" y="584" type="line" />
      <point x="94" y="585" />
      <point x="137" y="691" />
      <point x="262" y="690" type="curve" smooth="yes" />
      <point x="360" y="689" />
      <point x="415" y="643" />
      <point x="415" y="560" type="curve" smooth="yes" />
      <point x="415" y="462" />
      <point x="380" y="416" />
      <point x="216" y="416" type="curve" />
    </contour>
  </outline>
</glyph>
<glyph name="four" format="2">
  <advance width="639" />
  <unicode hex="0034" />
  <outline>
    <contour>
      <point x="488" y="0" type="line" />
      <point x="488" y="203" type="line" />
      <point x="604" y="203" type="line" />
      <point x="604" y="275" type="line" />
      <point x="488" y="275" type="line" />
      <point x="488" y="749" type="line" />
      <point x="416" y="749" type="line" />
      <point x="65" y="275" type="line" />
      <point x="65" y="203" type="line" />
      <point x="408" y="203" type="line" />
      <point x="408" y="0" type="line" />
    </contour>
    <contour>
      <point x="408" y="253" type="line" />
      <point x="430" y="275" type="line" />
      <point x="136" y="275" type="line" />
      <point x="136" y="247" type="line" />
      <point x="421" y="630" type="line" />
      <point x="408" y="642" type="line" />
    </contour>
  </outline>
</glyph>
<glyph name="five" format="2">
  <advance width="585" />
  <unicode hex="0035" />
  <guideline x="100" y="775" angle="87" name="3deg" />
  <guideline x="4" y="419" angle="0" identifier="fontra-guideline-1" />
  <guideline x="180" y="775" angle="87" name="3deg" />
  <guideline x="202" y="216" angle="30" identifier="fontra-guideline-3" />
  <guideline x="421" y="478" angle="0" />
  <guideline x="100" y="800" angle="90" name="regular" identifier="fontra-guideline-5" />
  <outline>
    <contour>
      <point x="65" y="137" type="line" />
      <point x="66" y="136" />
      <point x="116" y="-12" />
      <point x="292" y="-12" type="curve" smooth="yes" />
      <point x="450" y="-12" />
      <point x="541" y="99" />
      <point x="541" y="239" type="curve" smooth="yes" />
      <point x="541" y="379" />
      <point x="449" y="490" />
      <point x="309" y="490" type="curve" smooth="yes" />
      <point x="198" y="490" />
      <point x="163" y="428" />
      <point x="162" y="427" type="curve" />
      <point x="175" y="668" type="line" />
      <point x="497" y="668" type="line" />
      <point x="497" y="740" type="line" />
      <point x="99" y="740" type="line" />
      <point x="78" y="347" type="line" />
      <point x="158" y="347" type="line" />
      <point x="159" y="348" />
      <point x="199" y="419" />
      <point x="299" y="419" type="curve" smooth="yes" />
      <point x="408" y="419" />
      <point x="463" y="339" />
      <point x="463" y="239" type="curve" smooth="yes" />
      <point x="463" y="139" />
      <point x="400" y="60" />
      <point x="290" y="60" type="curve" smooth="yes" />
      <point x="171" y="60" />
      <point x="130" y="173" />
      <point x="129" y="174" type="curve" />
    </contour>
  </outline>
</glyph>
<glyph name="six" format="2">
  <advance width="781" />
  <unicode hex="0036" />
  <image fileName="965162d1-e7f1-43df-ab87-e8ed1293c4f6.png" xScale="5.071795758182816" yScale="5.071795758182816" yOffset="-337.0" color="0,0,0,0.15" xOffset="5" />
  <guideline x="5" y="490" angle="0" name="n" identifier="fontra-guideline-0" />
  <outline>
    <contour>
      <point x="390" y="490" type="curve" smooth="yes" />
      <point x="250" y="490" />
      <point x="135" y="379" />
      <point x="135" y="239" type="curve" smooth="yes" />
      <point x="135" y="99" />
      <point x="250" y="-12" />
      <point x="390" y="-12" type="curve" smooth="yes" />
      <point x="530" y="-12" />
      <point x="645" y="99" />
      <point x="645" y="239" type="curve" smooth="yes" />
      <point x="645" y="379" />
      <point x="530" y="490" />
    </contour>
    <contour>
      <point x="388" y="418" type="curve" />
      <point x="488" y="418" />
      <point x="567" y="339" />
      <point x="567" y="239" type="curve" smooth="yes" />
      <point x="567" y="139" />
      <point x="490" y="60" />
      <point x="390" y="60" type="curve" smooth="yes" />
      <point x="290" y="60" />
      <point x="213" y="139" />
      <point x="213" y="239" type="curve" smooth="yes" />
      <point x="213" y="339" />
      <point x="288" y="418" />
    </contour>
  </outline>
</glyph>
<glyph name="seven" format="2">
  <advance width="582" />
  <unicode hex="0037" />
  <outline>
    <contour>
      <point x="265" y="0" type="line" />
      <point x="265" y="301" />
      <point x="516" y="668" />
      <point x="517" y="668" type="curve" />
      <point x="517" y="740" type="line" />
      <point x="65" y="740" type="line" />
      <point x="65" y="668" type="line" />
      <point x="470" y="668" type="line" />
      <point x="452" y="701" type="line" />
      <point x="451" y="701" />
      <point x="185" y="310" />
      <point x="185" y="0" type="curve" />
    </contour>
  </outline>
</glyph>
<glyph name="eight" format="2">
  <advance width="610" />
  <unicode hex="0038" />
  <guideline x="5" y="478" angle="0" name="nsub" identifier="fontra-guideline-0" />
  <guideline x="5" y="406" angle="0" name="nsubsub" identifier="fontra-guideline-1" />
  <guideline x="155" y="775" angle="90" name="left 120-0" identifier="fontra-guideline-2" />
  <guideline x="455" y="775" angle="90" name="right 120-0" identifier="fontra-guideline-3" />
  <outline>
    <contour>
      <point x="305" y="758" type="curve" smooth="yes" />
      <point x="445" y="758" />
      <point x="535" y="661" />
      <point x="535" y="551" type="curve" smooth="yes" />
      <point x="535" y="431" />
      <point x="445" y="357" />
      <point x="305" y="357" type="curve" smooth="yes" />
      <point x="165" y="357" />
      <point x="75" y="431" />
      <point x="75" y="551" type="curve" smooth="yes" />
      <point x="75" y="661" />
      <point x="165" y="758" />
    </contour>
    <contour>
      <point x="305" y="688" type="curve" />
      <point x="205" y="688" />
      <point x="155" y="628" />
      <point x="155" y="548" type="curve" smooth="yes" />
      <point x="155" y="478" />
      <point x="205" y="416" />
      <point x="305" y="416" type="curve" smooth="yes" />
      <point x="405" y="416" />
      <point x="455" y="478" />
      <point x="455" y="548" type="curve" smooth="yes" />
      <point x="455" y="628" />
      <point x="405" y="688" />
    </contour>
    <contour>
      <point x="305" y="406" type="curve" smooth="yes" />
      <point x="457" y="407" />
      <point x="560" y="326" />
      <point x="560" y="200" type="curve" smooth="yes" />
      <point x="560" y="74" />
      <point x="457" y="-12" />
      <point x="305" y="-12" type="curve" smooth="yes" />
      <point x="153" y="-12" />
      <point x="50" y="74" />
      <point x="50" y="200" type="curve" smooth="yes" />
      <point x="50" y="326" />
      <point x="153" y="405" />
    </contour>
    <contour>
      <point x="305" y="347" type="curve" />
      <point x="200" y="347" />
      <point x="130" y="293" />
      <point x="130" y="203" type="curve" smooth="yes" />
      <point x="130" y="113" />
      <point x="200" y="58" />
      <point x="305" y="58" type="curve" smooth="yes" />
      <point x="410" y="58" />
      <point x="480" y="113" />
      <point x="480" y="203" type="curve" smooth="yes" />
      <point x="480" y="293" />
      <point x="410" y="347" />
    </contour>
  </outline>
</glyph>
<glyph name="nine" format="2">
  <advance width="1071"/>
  <unicode hex="0039"/>
  <outline>
    <contour>
      <point x="254" y="1511" type="line"/>
      <point x="93" y="1385" type="line"/>
      <point x="80" y="1138" type="line"/>
      <point x="201" y="777" type="line"/>
      <point x="378" y="741" type="line"/>
      <point x="492" y="718" type="line"/>
      <point x="811" y="741" type="line"/>
      <point x="807" y="614" type="line"/>
      <point x="750" y="338" type="line"/>
      <point x="450" y="-8" type="line"/>
      <point x="639" y="-1" type="line"/>
      <point x="987" y="466" type="line"/>
      <point x="991" y="1110" type="line"/>
      <point x="921" y="1446" type="line"/>
      <point x="622" y="1542" type="line"/>
    </contour>
    <contour>
      <point x="784" y="1349" type="line"/>
      <point x="833" y="943" type="line"/>
      <point x="596" y="875" type="line"/>
      <point x="333" y="941" type="line"/>
      <point x="232" y="1155" type="line"/>
      <point x="343" y="1380" type="line"/>
      <point x="588" y="1398" type="line"/>
    </contour>
  </outline>
</glyph>
<glyph name="colon" format="2">
  <advance width="532"/>
  <unicode hex="003A"/>
  <outline>
    <contour>
      <point x="392" y="1004" type="curve" smooth="yes"/>
      <point x="392" y="926"/>
      <point x="332" y="884"/>
      <point x="276" y="884" type="curve" smooth="yes"/>
      <point x="216" y="884"/>
      <point x="160" y="926"/>
      <point x="160" y="1004" type="curve" smooth="yes"/>
      <point x="160" y="1082"/>
      <point x="216" y="1124"/>
      <point x="276" y="1124" type="curve" smooth="yes"/>
      <point x="332" y="1124"/>
      <point x="392" y="1082"/>
    </contour>
    <contour>
      <point x="392" y="96" type="curve" smooth="yes"/>
      <point x="392" y="18"/>
      <point x="332" y="-24"/>
      <point x="276" y="-24" type="curve" smooth="yes"/>
      <point x="216" y="-24"/>
      <point x="160" y="18"/>
      <point x="160" y="96" type="curve" smooth="yes"/>
      <point x="160" y="174"/>
      <point x="216" y="216"/>
      <point x="276" y="216" type="curve" smooth="yes"/>
      <point x="332" y="216"/>
      <point x="392" y="174"/>
    </contour>
  </outline>
</glyph>
<glyph name="at" format="2">
  <advance width="1160" />
  <unicode hex="0040" />
  <outline>
    <contour>
      <point x="1080" y="256" type="curve" smooth="yes" />
      <point x="1080" y="557" />
      <point x="867" y="758" />
      <point x="588" y="758" type="curve" smooth="yes" />
      <point x="313" y="758" />
      <point x="95" y="547" />
      <point x="95" y="256" type="curve" smooth="yes" />
      <point x="95" y="-43" />
      <point x="334" y="-228" />
      <point x="584" y="-228" type="curve" smooth="yes" />
      <point x="756" y="-228" />
      <point x="835" y="-164" />
      <point x="835" y="-164" type="curve" />
      <point x="795" y="-102" type="line" />
      <point x="795" y="-102" />
      <point x="745" y="-156" />
      <point x="582" y="-156" type="curve" smooth="yes" />
      <point x="362" y="-156" />
      <point x="175" y="-6" />
      <point x="175" y="256" type="curve" smooth="yes" />
      <point x="175" y="520" />
      <point x="361" y="686" />
      <point x="588" y="686" type="curve" smooth="yes" />
      <point x="819" y="686" />
      <point x="1000" y="529" />
      <point x="1000" y="256" type="curve" smooth="yes" />
      <point x="1000" y="130" />
      <point x="964" y="60" />
      <point x="890" y="60" type="curve" smooth="yes" />
      <point x="816" y="60" />
      <point x="803" y="113" />
      <point x="803" y="147" type="curve" smooth="yes" />
      <point x="803" y="357" type="line" smooth="yes" />
      <point x="803" y="485" />
      <point x="729" y="562" />
      <point x="591" y="562" type="curve" smooth="yes" />
      <point x="448" y="562" />
      <point x="387" y="459" />
      <point x="387" y="459" type="curve" />
      <point x="446" y="417" type="line" />
      <point x="446" y="417" />
      <point x="488" y="490" />
      <point x="592" y="490" type="curve" smooth="yes" />
      <point x="691" y="490" />
      <point x="723" y="438" />
      <point x="723" y="360" type="curve" smooth="yes" />
      <point x="723" y="150" type="line" smooth="yes" />
      <point x="723" y="66" />
      <point x="768" y="-12" />
      <point x="886" y="-12" type="curve" smooth="yes" />
      <point x="998" y="-12" />
      <point x="1080" y="66" />
    </contour>
    <contour>
      <point x="547" y="60" type="curve" smooth="yes" />
      <point x="486" y="60" />
      <point x="443" y="90" />
      <point x="443" y="145" type="curve" smooth="yes" />
      <point x="443" y="228" />
      <point x="540" y="256" />
      <point x="744" y="256" type="curve" />
      <point x="744" y="328" type="line" />
      <point x="533" y="328" />
      <point x="363" y="296" />
      <point x="363" y="138" type="curve" smooth="yes" />
      <point x="363" y="42" />
      <point x="448" y="-12" />
      <point x="548" y="-12" type="curve" smooth="yes" />
      <point x="738" y="-12" />
      <point x="765" y="140" />
      <point x="765" y="240" type="curve" />
      <point x="723" y="254" type="line" />
      <point x="723" y="119" />
      <point x="649" y="60" />
    </contour>
  </outline>
</glyph>
<glyph name="A" format="2">
  <advance width="1420"/>
  <unicode hex="0041"/>
  <outline>
    <contour>
      <point x="734" y="1326" type="line"/>
      <point x="240" y="0" type="line"/>
      <point x="55" y="0" type="line"/>
      <point x="611" y="1480" type="line"/>
      <point x="809" y="1480" type="line"/>
      <point x="1365" y="0" type="line"/>
      <point x="1180" y="0" type="line"/>
      <point x="686" y="1326" type="line"/>
    </contour>
    <contour>
      <point x="1080" y="476" type="line"/>
      <point x="340" y="476" type="line"/>
      <point x="388" y="620" type="line"/>
      <point x="1028" y="620" type="line"/>
    </contour>
  </outline>
</glyph>
<glyph name="B" format="2">
  <advance width="648" />
  <unicode hex="0042" />
  <outline>
    <contour>
      <point x="75" y="0" type="line" />
      <point x="75" y="740" type="line" />
      <point x="155" y="740" type="line" />
      <point x="155" y="0" type="line" />
    </contour>
    <contour>
      <point x="508" y="210" type="curve" smooth="yes" />
      <point x="508" y="308" />
      <point x="455" y="350" />
      <point x="332" y="350" type="curve" smooth="yes" />
      <point x="129" y="350" type="line" />
      <point x="129" y="415" type="line" />
      <point x="312" y="415" type="line" smooth="yes" />
      <point x="415" y="415" />
      <point x="478" y="449" />
      <point x="478" y="549" type="curve" smooth="yes" />
      <point x="478" y="649" />
      <point x="415" y="668" />
      <point x="312" y="668" type="curve" smooth="yes" />
      <point x="129" y="668" type="line" />
      <point x="129" y="740" type="line" />
      <point x="342" y="740" type="line" smooth="yes" />
      <point x="485" y="740" />
      <point x="558" y="649" />
      <point x="558" y="549" type="curve" smooth="yes" />
      <point x="558" y="427" />
      <point x="459" y="386" />
      <point x="415" y="386" type="curve" />
      <point x="415" y="390" type="line" />
      <point x="492" y="390" />
      <point x="588" y="340" />
      <point x="588" y="210" type="curve" smooth="yes" />
      <point x="588" y="48" />
      <point x="465" y="0" />
      <point x="335" y="0" type="curve" />
      <point x="129" y="0" type="line" />
      <point x="129" y="65" type="line" />
      <point x="332" y="65" type="line" />
      <point x="455" y="65" />
      <point x="508" y="113" />
    </contour>
  </outline>
</glyph>
<glyph name="C" format="2">
  <advance width="1398" />
  <unicode hex="0043" />
  <outline>
    <contour>
      <point x="1318" y="218" type="line" />
      <point x="1318" y="218" />
      <point x="1180" y="-24" />
      <point x="810" y="-24" type="curve" smooth="yes" />
      <point x="528" y="-24" />
      <point x="130" y="118" />
      <point x="130" y="746" type="curve" smooth="yes" />
      <point x="130" y="1374" />
      <point x="528" y="1516" />
      <point x="786" y="1516" type="curve" smooth="yes" />
      <point x="1174" y="1516" />
      <point x="1290" y="1274" />
      <point x="1290" y="1274" type="curve" />
      <point x="1166" y="1210" type="line" />
      <point x="1166" y="1210" />
      <point x="1070" y="1372" />
      <point x="786" y="1372" type="curve" smooth="yes" />
      <point x="478" y="1372" />
      <point x="290" y="1146" />
      <point x="290" y="746" type="curve" smooth="yes" />
      <point x="290" y="346" />
      <point x="478" y="120" />
      <point x="810" y="120" type="curve" smooth="yes" />
      <point x="1090" y="120" />
      <point x="1194" y="282" />
      <point x="1194" y="282" type="curve" />
    </contour>
  </outline>
</glyph>
<glyph name="D" format="2">
  <advance width="695" />
  <unicode hex="0044" />
  <outline>
    <contour>
      <point x="155" y="710" type="line" />
      <point x="155" y="370" type="line" />
      <point x="75" y="370" type="line" />
      <point x="75" y="710" type="line" />
    </contour>
    <contour>
      <point x="155" y="30" type="line" />
      <point x="75" y="30" type="line" />
      <point x="75" y="370" type="line" />
      <point x="155" y="370" type="line" />
    </contour>
    <contour>
      <point x="565" y="370" type="curve" smooth="yes" />
      <point x="565" y="570" />
      <point x="485" y="668" />
      <point x="285" y="668" type="curve" />
      <point x="75" y="668" type="line" />
      <point x="75" y="740" type="line" />
      <point x="290" y="740" type="line" />
      <point x="435" y="740" />
      <point x="645" y="684" />
      <point x="645" y="370" type="curve" smooth="yes" />
      <point x="645" y="56" />
      <point x="453" y="0" />
      <point x="289" y="0" type="curve" />
      <point x="75" y="0" type="line" />
      <point x="75" y="72" type="line" />
      <point x="285" y="72" type="line" />
      <point x="495" y="72" />
      <point x="565" y="170" />
    </contour>
  </outline>
</glyph>
<glyph name="E" format="2">
  <advance width="1170"/>
  <unicode hex="0045"/>
  <outline>
    <contour>
      <point x="147" y="1480" type="line"/>
      <point x="1057" y="1480" type="line"/>
      <point x="1057" y="1336" type="line"/>
      <point x="307" y="1336" type="line"/>
      <point x="307" y="824" type="line"/>
      <point x="997" y="824" type="line"/>
      <point x="997" y="680" type="line"/>
      <point x="307" y="680" type="line"/>
      <point x="307" y="144" type="line"/>
      <point x="1097" y="144" type="line"/>
      <point x="1097" y="0" type="line"/>
      <point x="147" y="0" type="line"/>
    </contour>
  </outline>
</glyph>
<glyph name="F" format="2">
  <advance width="564" />
  <unicode hex="0046" />
  <outline>
    <contour>
      <point x="75" y="740" type="line" />
      <point x="519" y="740" type="line" />
      <point x="519" y="668" type="line" />
      <point x="155" y="668" type="line" />
      <point x="155" y="412" type="line" />
      <point x="489" y="412" type="line" />
      <point x="489" y="340" type="line" />
      <point x="155" y="340" type="line" />
      <point x="155" y="0" type="line" />
      <point x="75" y="0" type="line" />
    </contour>
  </outline>
</glyph>
<glyph name="G" format="2">
  <advance width="775" />
  <unicode hex="0047" />
  <outline>
    <contour>
      <point x="405" y="686" type="curve" smooth="yes" />
      <point x="540" y="686" />
      <point x="590" y="602" />
      <point x="590" y="602" type="curve" />
      <point x="652" y="634" type="line" />
      <point x="652" y="634" />
      <point x="587" y="758" />
      <point x="397" y="758" type="curve" smooth="yes" />
      <point x="204" y="758" />
      <point x="65" y="616" />
      <point x="65" y="373" type="curve" smooth="yes" />
      <point x="65" y="130" />
      <point x="206" y="-12" />
      <point x="406" y="-12" type="curve" smooth="yes" />
      <point x="606" y="-12" />
      <point x="707" y="123" />
      <point x="707" y="290" type="curve" />
      <point x="707" y="376" type="line" />
      <point x="432" y="376" type="line" />
      <point x="432" y="304" type="line" />
      <point x="635" y="304" type="line" />
      <point x="635" y="285" type="line" />
      <point x="635" y="158" />
      <point x="564" y="60" />
      <point x="404" y="60" type="curve" smooth="yes" />
      <point x="234" y="60" />
      <point x="145" y="173" />
      <point x="145" y="373" type="curve" smooth="yes" />
      <point x="145" y="573" />
      <point x="239" y="686" />
    </contour>
  </outline>
</glyph>
<glyph name="H" format="2">
  <advance width="712" />
  <unicode hex="0048" />
  <outline>
    <contour>
      <point x="155" y="740" type="line" />
      <point x="155" y="412" type="line" />
      <point x="557" y="412" type="line" />
      <point x="557" y="740" type="line" />
      <point x="637" y="740" type="line" />
      <point x="637" y="0" type="line" />
      <point x="557" y="0" type="line" />
      <point x="557" y="340" type="line" />
      <point x="155" y="340" type="line" />
      <point x="155" y="0" type="line" />
      <point x="75" y="0" type="line" />
      <point x="75" y="740" type="line" />
    </contour>
  </outline>
</glyph>
<glyph name="I" format="2">
  <advance width="820" />
  <unicode hex="0049" />
  <outline>
    <contour>
      <point x="130" y="144" type="line" />
      <point x="330" y="144" type="line" />
      <point x="330" y="1336" type="line" />
      <point x="130" y="1336" type="line" />
      <point x="130" y="1480" type="line" />
      <point x="690" y="1480" type="line" />
      <point x="690" y="1336" type="line" />
      <point x="490" y="1336" type="line" />
      <point x="490" y="144" type="line" />
      <point x="690" y="144" type="line" />
      <point x="690" y="0" type="line" />
      <point x="130" y="0" type="line" />
    </contour>
  </outline>
</glyph>
<glyph name="J" format="2">
  <advance width="557" />
  <unicode hex="004A" />
  <outline>
    <contour>
      <point x="260" y="54" type="curve" smooth="yes" />
      <point x="374" y="54" />
      <point x="402" y="114" />
      <point x="402" y="230" type="curve" smooth="yes" />
      <point x="402" y="740" type="line" />
      <point x="482" y="740" type="line" />
      <point x="482" y="234" type="line" smooth="yes" />
      <point x="482" y="70" />
      <point x="417" y="-12" />
      <point x="258" y="-12" type="curve" smooth="yes" />
      <point x="62" y="-12" />
      <point x="35" y="158" />
      <point x="35" y="158" type="curve" />
      <point x="103" y="175" type="line" />
      <point x="103" y="175" />
      <point x="122" y="54" />
    </contour>
  </outline>
</glyph>
<glyph name="K" format="2">
  <advance width="684"/>
  <unicode hex="004B"/>
  <outline>
    <contour>
      <point x="90" y="744" type="line"/>
      <point x="90" y="5" type="line"/>
      <point x="155" y="5" type="line"/>
      <point x="155" y="744" type="line"/>
    </contour>
    <contour>
      <point x="125" y="366" type="line"/>
      <point x="125" y="362"/>
      <point x="126" y="334"/>
      <point x="129" y="283" type="curve"/>
      <point x="577" y="730" type="line"/>
      <point x="488" y="729" type="line"/>
    </contour>
    <contour>
      <point x="219" y="393" type="line"/>
      <point x="508" y="-2" type="line"/>
      <point x="594" y="4" type="line"/>
      <point x="266" y="436" type="line"/>
    </contour>
  </outline>
</glyph>
<glyph name="L" format="2">
  <advance width="1128"/>
  <unicode hex="004C"/>
  <outline>
    <contour>
      <point x="150" y="0" type="line"/>
      <point x="1038" y="0" type="line"/>
      <point x="1038" y="130" type="line"/>
      <point x="310" y="130" type="line"/>
      <point x="310" y="1480" type="line"/>
      <point x="150" y="1480" type="line"/>
    </contour>
  </outline>
</glyph>
<glyph name="M" format="2">
  <advance width="846" />
  <unicode hex="004D" />
  <outline>
    <contour>
      <point x="771" y="740" type="line" />
      <point x="771" y="0" type="line" />
      <point x="691" y="0" type="line" />
      <point x="691" y="635" type="line" />
      <point x="458" y="10" type="line" />
      <point x="382" y="10" type="line" />
      <point x="156" y="635" type="line" />
      <point x="156" y="0" type="line" />
      <point x="75" y="0" type="line" />
      <point x="76" y="740" type="line" />
      <point x="197" y="740" type="line" />
      <point x="421" y="120" type="line" />
      <point x="650" y="740" type="line" />
    </contour>
  </outline>
</glyph>
<glyph name="N" format="2">
  <advance width="1446"/>
  <unicode hex="004E"/>
  <outline>
    <contour>
      <point x="134" y="0" type="line"/>
      <point x="340" y="5" type="line"/>
      <point x="325" y="1257" type="line"/>
      <point x="1162" y="-3" type="line"/>
      <point x="1343" y="7" type="line"/>
      <point x="1305" y="1478" type="line"/>
      <point x="1075" y="1481" type="line"/>
      <point x="1159" y="324" type="line"/>
      <point x="413" y="1478" type="line"/>
      <point x="103" y="1481" type="line"/>
    </contour>
  </outline>
</glyph>
<glyph name="O" format="2">
  <advance width="1580" />
  <unicode hex="004F" />
  <outline>
    <contour>
      <point x="790" y="-24" type="curve" smooth="yes" />
      <point x="518" y="-24" />
      <point x="130" y="138" />
      <point x="130" y="746" type="curve" smooth="yes" />
      <point x="130" y="1354" />
      <point x="518" y="1516" />
      <point x="790" y="1516" type="curve" smooth="yes" />
      <point x="1062" y="1516" />
      <point x="1450" y="1354" />
      <point x="1450" y="746" type="curve" />
      <point x="1450" y="138" />
      <point x="1062" y="-24" />
    </contour>
    <contour>
      <point x="1290" y="746" type="curve" smooth="yes" />
      <point x="1290" y="1126" />
      <point x="1108" y="1372" />
      <point x="790" y="1372" type="curve" smooth="yes" />
      <point x="472" y="1372" />
      <point x="290" y="1126" />
      <point x="290" y="746" type="curve" smooth="yes" />
      <point x="290" y="366" />
      <point x="468" y="120" />
      <point x="790" y="120" type="curve" smooth="yes" />
      <point x="1108" y="120" />
      <point x="1290" y="366" />
    </contour>
  </outline>
</glyph>
<glyph name="P" format="2">
  <advance width="1236"/>
  <unicode hex="0050"/>
  <outline>
    <contour>
      <point x="164" y="1480" type="line"/>
      <point x="678" y="1480" type="line" smooth="yes"/>
      <point x="950" y="1480"/>
      <point x="1120" y="1330"/>
      <point x="1120" y="1062" type="curve" smooth="yes"/>
      <point x="1120" y="826"/>
      <point x="950" y="662"/>
      <point x="678" y="662" type="curve" smooth="yes"/>
      <point x="344" y="662" type="line"/>
      <point x="344" y="0" type="line"/>
      <point x="164" y="0" type="line"/>
    </contour>
    <contour>
      <point x="344" y="1318" type="line"/>
      <point x="344" y="824" type="line"/>
      <point x="644" y="824" type="line"/>
      <point x="864" y="824"/>
      <point x="940" y="912"/>
      <point x="940" y="1072" type="curve" smooth="yes"/>
      <point x="940" y="1242"/>
      <point x="864" y="1318"/>
      <point x="644" y="1318" type="curve"/>
    </contour>
  </outline>
</glyph>
<glyph name="Q" format="2">
  <advance width="1482"/>
  <unicode hex="0051"/>
  <guideline x="921" y="-393" angle="15" name="-15x3"/>
  <outline>
    <contour>
      <point x="766" y="10" type="line"/>
      <point x="960" y="-382" type="line"/>
      <point x="1123" y="-337" type="line"/>
      <point x="896" y="85" type="line"/>
    </contour>
    <component base="O"/>
  </outline>
</glyph>
<glyph name="R" format="2">
  <advance width="648" />
  <unicode hex="0052" />
  <outline>
    <contour>
      <point x="75" y="740" type="line" />
      <point x="342" y="740" type="line" />
      <point x="490" y="740" />
      <point x="558" y="639" />
      <point x="558" y="539" type="curve" smooth="yes" />
      <point x="558" y="439" />
      <point x="500" y="330" />
      <point x="342" y="330" type="curve" />
      <point x="155" y="330" type="line" />
      <point x="155" y="0" type="line" />
      <point x="75" y="0" type="line" />
    </contour>
    <contour>
      <point x="312" y="395" type="line" smooth="yes" />
      <point x="415" y="395" />
      <point x="481" y="434" />
      <point x="481" y="539" type="curve" smooth="yes" />
      <point x="481" y="644" />
      <point x="415" y="675" />
      <point x="312" y="675" type="curve" smooth="yes" />
      <point x="155" y="675" type="line" />
      <point x="155" y="395" type="line" />
    </contour>
    <contour>
      <point x="600" y="0" type="line" />
      <point x="517" y="0" type="line" />
      <point x="326" y="340" type="line" />
      <point x="400" y="354" type="line" />
    </contour>
  </outline>
</glyph>
<glyph name="S" format="2">
  <advance width="675" />
  <unicode hex="0053" />
  <outline>
    <contour>
      <point x="592" y="653" type="curve" />
      <point x="544" y="612" type="line" />
      <point x="544" y="612" />
      <point x="491" y="686" />
      <point x="349" y="686" type="curve" smooth="yes" />
      <point x="223" y="686" />
      <point x="168" y="630" />
      <point x="168" y="560" type="curve" smooth="yes" />
      <point x="168" y="363" />
      <point x="620" y="467" />
      <point x="620" y="197" type="curve" smooth="yes" />
      <point x="620" y="68" />
      <point x="527" y="-12" />
      <point x="357" y="-12" type="curve" smooth="yes" />
      <point x="140" y="-12" />
      <point x="65" y="117" />
      <point x="65" y="117" type="curve" />
      <point x="122" y="157" type="line" />
      <point x="122" y="157" />
      <point x="197" y="60" />
      <point x="356" y="60" type="curve" smooth="yes" />
      <point x="466" y="60" />
      <point x="540" y="95" />
      <point x="540" y="195" type="curve" smooth="yes" />
      <point x="540" y="383" />
      <point x="88" y="289" />
      <point x="88" y="554" type="curve" smooth="yes" />
      <point x="88" y="667" />
      <point x="179" y="758" />
      <point x="343" y="758" type="curve" smooth="yes" />
      <point x="522" y="758" />
      <point x="592" y="653" />
    </contour>
  </outline>
</glyph>
<glyph name="T" format="2">
  <advance width="682" />
  <unicode hex="0054" />
  <outline>
    <contour>
      <point x="381" y="740" type="line" />
      <point x="381" y="0" type="line" />
      <point x="301" y="0" type="line" />
      <point x="301" y="740" type="line" />
    </contour>
    <contour>
      <point x="60" y="740" type="line" />
      <point x="622" y="740" type="line" />
      <point x="622" y="668" type="line" />
      <point x="60" y="668" type="line" />
    </contour>
  </outline>
</glyph>
<glyph name="U" format="2">
  <advance width="1346"/>
  <unicode hex="0055"/>
  <outline>
    <contour>
      <point x="715" y="108" type="curve" smooth="yes"/>
      <point x="487" y="108"/>
      <point x="307" y="228"/>
      <point x="307" y="460" type="curve" smooth="yes"/>
      <point x="307" y="1480" type="line"/>
      <point x="147" y="1480" type="line"/>
      <point x="147" y="468" type="line" smooth="yes"/>
      <point x="147" y="140"/>
      <point x="397" y="-24"/>
      <point x="715" y="-24" type="curve" smooth="yes"/>
      <point x="1033" y="-24"/>
      <point x="1243" y="140"/>
      <point x="1243" y="468" type="curve" smooth="yes"/>
      <point x="1243" y="1480" type="line"/>
      <point x="1083" y="1480" type="line"/>
      <point x="1083" y="460" type="line" smooth="yes"/>
      <point x="1083" y="228"/>
      <point x="943" y="108"/>
    </contour>
  </outline>
</glyph>
<glyph name="V" format="2">
  <advance width="1360"/>
  <unicode hex="0056"/>
  <outline>
    <contour>
      <point x="80" y="1509" type="line"/>
      <point x="538" y="-1" type="line"/>
      <point x="788" y="-1" type="line"/>
      <point x="1280" y="1518" type="line"/>
      <point x="1137" y="1504" type="line"/>
      <point x="644" y="165" type="line"/>
      <point x="241" y="1509" type="line"/>
    </contour>
  </outline>
</glyph>
<glyph name="W" format="2">
  <advance width="1880"/>
  <unicode hex="0057"/>
  <guideline x="941" y="1221" angle="254.00503492834653"/>
  <outline>
    <contour>
      <point x="1850" y="1480" type="line"/>
      <point x="1424" y="0" type="line"/>
      <point x="1289" y="0" type="line"/>
      <point x="1011" y="970" type="line"/>
      <point x="977" y="1088"/>
      <point x="905" y="1361"/>
      <point x="905" y="1463" type="curve"/>
      <point x="975" y="1463" type="line"/>
      <point x="975" y="1361"/>
      <point x="903" y="1088"/>
      <point x="869" y="970" type="curve"/>
      <point x="591" y="0" type="line"/>
      <point x="456" y="0" type="line"/>
      <point x="30" y="1480" type="line"/>
      <point x="207" y="1480" type="line"/>
      <point x="432" y="699" type="line"/>
      <point x="508" y="435"/>
      <point x="563" y="139"/>
      <point x="563" y="17" type="curve"/>
      <point x="493" y="17" type="line"/>
      <point x="493" y="59"/>
      <point x="560" y="406"/>
      <point x="692" y="863" type="curve"/>
      <point x="871" y="1480" type="line"/>
      <point x="940" y="1480" type="line"/>
      <point x="1009" y="1480" type="line"/>
      <point x="1188" y="863" type="line"/>
      <point x="1320" y="406"/>
      <point x="1387" y="59"/>
      <point x="1387" y="17" type="curve"/>
      <point x="1317" y="17" type="line"/>
      <point x="1317" y="139"/>
      <point x="1372" y="435"/>
      <point x="1448" y="699" type="curve"/>
      <point x="1673" y="1480" type="line"/>
    </contour>
  </outline>
</glyph>
<glyph name="X" format="2">
  <advance width="1416"/>
  <unicode hex="0058"/>
  <outline>
    <contour>
      <point x="30" y="0" type="line"/>
      <point x="206" y="0" type="line"/>
      <point x="1386" y="1480" type="line"/>
      <point x="1216" y="1480" type="line"/>
    </contour>
    <contour>
      <point x="200" y="1480" type="line"/>
      <point x="30" y="1480" type="line"/>
      <point x="1210" y="0" type="line"/>
      <point x="1386" y="0" type="line"/>
    </contour>
  </outline>
</glyph>
<glyph name="Y" format="2">
  <advance width="1243"/>
  <unicode hex="0059"/>
  <outline>
    <contour>
      <point x="30" y="1504" type="line"/>
      <point x="535" y="793" type="line"/>
      <point x="530" y="0" type="line"/>
      <point x="719" y="0" type="line"/>
      <point x="748" y="810" type="line"/>
      <point x="1213" y="1510" type="line"/>
      <point x="995" y="1521" type="line"/>
      <point x="650" y="965" type="line"/>
      <point x="237" y="1493" type="line"/>
    </contour>
  </outline>
</glyph>
<glyph name="Z" format="2">
  <advance width="1159"/>
  <unicode hex="005A"/>
  <outline>
    <contour>
      <point x="91" y="1499" type="line"/>
      <point x="80" y="1362" type="line"/>
      <point x="804" y="1362" type="line"/>
      <point x="154" y="162" type="line"/>
      <point x="149" y="47" type="line"/>
      <point x="1057" y="19" type="line"/>
      <point x="1079" y="162" type="line"/>
      <point x="344" y="162" type="line"/>
      <point x="988" y="1379" type="line"/>
      <point x="982" y="1494" type="line"/>
    </contour>
  </outline>
</glyph>
<glyph name="bracketleft" format="2">
  <advance width="328" />
  <unicode hex="005B" />
  <outline>
    <contour>
      <point x="145" y="-89" type="line" />
      <point x="145" y="703" type="line" />
      <point x="288" y="703" type="line" />
      <point x="288" y="775" type="line" />
      <point x="65" y="775" type="line" />
      <point x="65" y="-161" type="line" />
      <point x="288" y="-161" type="line" />
      <point x="288" y="-89" type="line" />
    </contour>
  </outline>
</glyph>
<glyph name="bracketright" format="2">
  <advance width="323"/>
  <unicode hex="005D"/>
  <outline>
    <contour>
      <point x="183" y="-89" type="line"/>
      <point x="183" y="703" type="line"/>
      <point x="40" y="703" type="line"/>
      <point x="40" y="775" type="line"/>
      <point x="263" y="775" type="line"/>
      <point x="263" y="-161" type="line"/>
      <point x="40" y="-161" type="line"/>
      <point x="40" y="-89" type="line"/>
    </contour>
  </outline>
</glyph>
<glyph name="underscore" format="2">
  <advance width="474" />
  <unicode hex="005F" />
  <outline>
    <contour>
      <point x="5" y="0" type="line" />
      <point x="5" y="-72" type="line" />
      <point x="469" y="-72" type="line" />
      <point x="469" y="0" type="line" />
    </contour>
  </outline>
</glyph>
<glyph name="a" format="2">
  <advance width="1109"/>
  <unicode hex="0061"/>
  <guideline x="10" y="1042" angle="145" identifier="fontra-guideline-0"/>
  <anchor x="596" y="1316" name="top"/>
  <outline>
    <contour>
      <point x="559" y="1124" type="curve" smooth="yes"/>
      <point x="835" y="1124"/>
      <point x="983" y="970"/>
      <point x="983" y="714" type="curve" smooth="yes"/>
      <point x="983" y="0" type="line"/>
      <point x="839" y="0" type="line"/>
      <point x="823" y="200" type="line"/>
      <point x="823" y="720" type="line"/>
      <point x="823" y="876"/>
      <point x="759" y="980"/>
      <point x="561" y="980" type="curve" smooth="yes"/>
      <point x="353" y="980"/>
      <point x="269" y="834"/>
      <point x="269" y="834" type="curve"/>
      <point x="151" y="918" type="line"/>
      <point x="151" y="918"/>
      <point x="273" y="1124"/>
    </contour>
    <contour>
      <point x="471" y="120" type="curve" smooth="yes"/>
      <point x="695" y="120"/>
      <point x="823" y="238"/>
      <point x="823" y="508" type="curve"/>
      <point x="907" y="480" type="line"/>
      <point x="907" y="360"/>
      <point x="853" y="-24"/>
      <point x="473" y="-24" type="curve" smooth="yes"/>
      <point x="273" y="-24"/>
      <point x="103" y="84"/>
      <point x="103" y="276" type="curve" smooth="yes"/>
      <point x="103" y="592"/>
      <point x="443" y="656"/>
      <point x="865" y="656" type="curve"/>
      <point x="865" y="512" type="line"/>
      <point x="457" y="512"/>
      <point x="263" y="456"/>
      <point x="263" y="290" type="curve" smooth="yes"/>
      <point x="263" y="180"/>
      <point x="349" y="120"/>
    </contour>
  </outline>
</glyph>
<glyph name="b" format="2">
  <advance width="1242"/>
  <unicode hex="0062"/>
  <outline>
    <contour>
      <point x="144" y="1550" type="line"/>
      <point x="144" y="0" type="line"/>
      <point x="288" y="0" type="line"/>
      <point x="306" y="200" type="line"/>
      <point x="276" y="554" type="line"/>
      <point x="304" y="890" type="line"/>
      <point x="304" y="1550" type="line"/>
    </contour>
    <contour>
      <point x="662" y="1124" type="curve" smooth="yes"/>
      <point x="402" y="1124"/>
      <point x="200" y="970"/>
      <point x="200" y="554" type="curve" smooth="yes"/>
      <point x="200" y="130"/>
      <point x="402" y="-24"/>
      <point x="662" y="-24" type="curve" smooth="yes"/>
      <point x="858" y="-24"/>
      <point x="1128" y="106"/>
      <point x="1128" y="554" type="curve" smooth="yes"/>
      <point x="1128" y="990"/>
      <point x="858" y="1124"/>
    </contour>
    <contour>
      <point x="642" y="980" type="curve" smooth="yes"/>
      <point x="852" y="980"/>
      <point x="968" y="820"/>
      <point x="968" y="554" type="curve" smooth="yes"/>
      <point x="968" y="272"/>
      <point x="852" y="120"/>
      <point x="642" y="120" type="curve" smooth="yes"/>
      <point x="434" y="120"/>
      <point x="300" y="258"/>
      <point x="300" y="554" type="curve" smooth="yes"/>
      <point x="300" y="834"/>
      <point x="432" y="980"/>
    </contour>
  </outline>
</glyph>
<glyph name="c" format="2">
  <advance width="1136"/>
  <unicode hex="0063"/>
  <guideline x="404" y="550" angle="30" identifier="fontra-guideline-0"/>
  <guideline x="404" y="550" angle="150" identifier="fontra-guideline-1"/>
  <guideline x="404" y="838" angle="0"/>
  <guideline x="404" y="262" angle="0" identifier="fontra-guideline-3"/>
  <outline>
    <contour>
      <point x="274" y="550" type="curve" smooth="yes"/>
      <point x="274" y="258"/>
      <point x="414" y="120"/>
      <point x="634" y="120" type="curve" smooth="yes"/>
      <point x="844" y="120"/>
      <point x="910" y="262"/>
      <point x="910" y="262" type="curve"/>
      <point x="1034" y="188" type="line"/>
      <point x="1034" y="188"/>
      <point x="924" y="-24"/>
      <point x="634" y="-24" type="curve" smooth="yes"/>
      <point x="374" y="-24"/>
      <point x="114" y="134"/>
      <point x="114" y="550" type="curve" smooth="yes"/>
      <point x="114" y="966"/>
      <point x="374" y="1124"/>
      <point x="634" y="1124" type="curve" smooth="yes"/>
      <point x="924" y="1124"/>
      <point x="1034" y="912"/>
      <point x="1034" y="912" type="curve"/>
      <point x="910" y="838" type="line"/>
      <point x="910" y="838"/>
      <point x="844" y="980"/>
      <point x="634" y="980" type="curve" smooth="yes"/>
      <point x="414" y="980"/>
      <point x="274" y="842"/>
    </contour>
  </outline>
</glyph>
<glyph name="d" format="2">
  <advance width="1242"/>
  <unicode hex="0064"/>
  <outline>
    <contour>
      <point x="938" y="1550" type="line"/>
      <point x="938" y="890" type="line"/>
      <point x="966" y="554" type="line"/>
      <point x="936" y="200" type="line"/>
      <point x="954" y="0" type="line"/>
      <point x="1098" y="0" type="line"/>
      <point x="1098" y="1550" type="line"/>
    </contour>
    <contour>
      <point x="580" y="1124" type="curve" smooth="yes"/>
      <point x="384" y="1124"/>
      <point x="114" y="990"/>
      <point x="114" y="554" type="curve" smooth="yes"/>
      <point x="114" y="106"/>
      <point x="384" y="-24"/>
      <point x="580" y="-24" type="curve" smooth="yes"/>
      <point x="840" y="-24"/>
      <point x="1042" y="130"/>
      <point x="1042" y="554" type="curve" smooth="yes"/>
      <point x="1042" y="970"/>
      <point x="840" y="1124"/>
    </contour>
    <contour>
      <point x="600" y="980" type="curve" smooth="yes"/>
      <point x="810" y="980"/>
      <point x="942" y="834"/>
      <point x="942" y="554" type="curve" smooth="yes"/>
      <point x="942" y="258"/>
      <point x="808" y="120"/>
      <point x="600" y="120" type="curve" smooth="yes"/>
      <point x="390" y="120"/>
      <point x="274" y="272"/>
      <point x="274" y="554" type="curve" smooth="yes"/>
      <point x="274" y="820"/>
      <point x="390" y="980"/>
    </contour>
  </outline>
</glyph>
<glyph name="e" format="2">
  <advance width="1146" />
  <unicode hex="0065" />
  <guideline x="404" y="550" angle="150" identifier="fontra-guideline-0" />
  <guideline x="404" y="550" angle="30" identifier="fontra-guideline-1" />
  <guideline x="404" y="262" angle="0" identifier="fontra-guideline-2" />
  <outline>
    <contour>
      <point x="886" y="694" type="line" />
      <point x="886" y="828" />
      <point x="798" y="980" />
      <point x="600" y="980" type="curve" smooth="yes" />
      <point x="400" y="980" />
      <point x="272" y="848" />
      <point x="272" y="580" type="curve" />
      <point x="272" y="474" type="line" />
      <point x="272" y="258" />
      <point x="410" y="120" />
      <point x="616" y="120" type="curve" smooth="yes" />
      <point x="840" y="120" />
      <point x="906" y="262" />
      <point x="906" y="262" type="curve" />
      <point x="1030" y="188" type="line" />
      <point x="1030" y="188" />
      <point x="920" y="-24" />
      <point x="610" y="-24" type="curve" smooth="yes" />
      <point x="370" y="-24" />
      <point x="110" y="114" />
      <point x="110" y="540" type="curve" />
      <point x="110" y="966" />
      <point x="362" y="1124" />
      <point x="600" y="1124" type="curve" />
      <point x="850" y="1124" />
      <point x="1046" y="920" />
      <point x="1046" y="656" type="curve" smooth="yes" />
      <point x="1046" y="558" />
      <point x="1040" y="512" />
      <point x="1040" y="510" type="curve" />
      <point x="224" y="510" type="line" />
      <point x="224" y="654" type="line" />
      <point x="906" y="654" type="line" />
      <point x="886" y="634" type="line" />
    </contour>
  </outline>
</glyph>
<glyph name="f" format="2">
  <advance width="864" />
  <unicode hex="0066" />
  <guideline x="472" y="-450" angle="80" identifier="fontra-guideline-0" />
  <outline>
    <contour>
      <point x="110" y="1100" type="line" />
      <point x="766" y="1100" type="line" />
      <point x="766" y="956" type="line" />
      <point x="110" y="956" type="line" />
    </contour>
    <contour>
      <point x="472" y="0" type="line" />
      <point x="312" y="0" type="line" />
      <point x="312" y="1256" type="line" />
      <point x="312" y="1460" />
      <point x="432" y="1586" />
      <point x="656" y="1586" type="curve" smooth="yes" />
      <point x="764" y="1586" />
      <point x="824" y="1548" />
      <point x="824" y="1548" type="curve" />
      <point x="800" y="1408" type="line" />
      <point x="800" y="1408" />
      <point x="756" y="1442" />
      <point x="664" y="1442" type="curve" smooth="yes" />
      <point x="530" y="1442" />
      <point x="472" y="1390" />
      <point x="472" y="1250" type="curve" />
    </contour>
  </outline>
</glyph>
<glyph name="g" format="2">
  <advance width="637" />
  <unicode hex="0067" />
  <guideline x="613" y="275" angle="95" name="5deg" identifier="fontra-guideline-0" />
  <guideline x="613" y="275" angle="85" name="-5deg" identifier="fontra-guideline-1" />
  <guideline x="202" y="131" angle="0" identifier="fontra-guideline-2" />
  <guideline x="202" y="46" angle="177" name="-3deg" />
  <outline>
    <contour>
      <point x="145" y="-77" type="curve" smooth="yes" />
      <point x="145" y="-129" />
      <point x="211" y="-159" />
      <point x="332" y="-159" type="curve" smooth="yes" />
      <point x="464" y="-159" />
      <point x="517" y="-117" />
      <point x="517" y="-70" type="curve" smooth="yes" />
      <point x="517" y="-19" />
      <point x="475" y="-2" />
      <point x="333" y="1" type="curve" smooth="yes" />
      <point x="235" y="3" />
      <point x="145" y="7" />
    </contour>
    <contour>
      <point x="534" y="384" type="curve" smooth="yes" />
      <point x="534" y="274" />
      <point x="452" y="197" />
      <point x="322" y="197" type="curve" smooth="yes" />
      <point x="192" y="197" />
      <point x="106" y="275" />
      <point x="106" y="376" type="curve" smooth="yes" />
      <point x="106" y="504" />
      <point x="210" y="562" />
      <point x="322" y="562" type="curve" smooth="yes" />
      <point x="430" y="562" />
      <point x="534" y="504" />
    </contour>
    <contour>
      <point x="186" y="380" type="curve" smooth="yes" />
      <point x="186" y="305" />
      <point x="242" y="269" />
      <point x="322" y="269" type="curve" smooth="yes" />
      <point x="402" y="269" />
      <point x="454" y="306" />
      <point x="454" y="381" type="curve" smooth="yes" />
      <point x="454" y="456" />
      <point x="402" y="490" />
      <point x="322" y="490" type="curve" smooth="yes" />
      <point x="242" y="490" />
      <point x="186" y="455" />
    </contour>
    <contour>
      <point x="243" y="7" type="line" />
      <point x="182" y="7" />
      <point x="104" y="51" />
      <point x="104" y="130" type="curve" smooth="yes" />
      <point x="104" y="201" />
      <point x="152" y="259" />
      <point x="328" y="249" type="curve" />
      <point x="328" y="199" type="line" />
      <point x="253" y="209" />
      <point x="184" y="197" />
      <point x="184" y="141" type="curve" smooth="yes" />
      <point x="184" y="77" />
      <point x="271" y="84" />
      <point x="359" y="80" type="curve" smooth="yes" />
      <point x="476" y="75" />
      <point x="597" y="58" />
      <point x="597" y="-63" type="curve" smooth="yes" />
      <point x="597" y="-164" />
      <point x="501" y="-231" />
      <point x="332" y="-231" type="curve" smooth="yes" />
      <point x="162" y="-231" />
      <point x="65" y="-177" />
      <point x="65" y="-83" type="curve" smooth="yes" />
      <point x="65" y="6" />
      <point x="145" y="43" />
      <point x="233" y="43" type="curve" />
    </contour>
    <contour>
      <point x="432" y="505" type="line" />
      <point x="432" y="505" />
      <point x="481" y="589" />
      <point x="586" y="589" type="curve" />
      <point x="593" y="512" type="line" />
      <point x="580" y="512" type="line" />
      <point x="495" y="512" />
      <point x="465" y="450" />
      <point x="465" y="450" type="curve" />
    </contour>
    <contour>
      <point x="106" y="264" type="move" />
    </contour>
  </outline>
</glyph>
<glyph name="h" format="2">
  <advance width="1216"/>
  <unicode hex="0068"/>
  <anchor x="239" y="1550" name="top"/>
  <anchor x="639" y="0" name="bottom"/>
  <outline>
    <contour>
      <point x="155" y="0" type="line"/>
      <point x="325" y="0" type="line"/>
      <point x="325" y="1550" type="line"/>
      <point x="155" y="1550" type="line"/>
    </contour>
    <contour>
      <point x="325" y="634" type="line"/>
      <point x="325" y="840"/>
      <point x="461" y="971"/>
      <point x="661" y="971" type="curve" smooth="yes"/>
      <point x="831" y="971"/>
      <point x="913" y="916"/>
      <point x="913" y="718" type="curve" smooth="yes"/>
      <point x="913" y="0" type="line"/>
      <point x="1083" y="0" type="line"/>
      <point x="1083" y="720" type="line" smooth="yes"/>
      <point x="1083" y="982"/>
      <point x="937" y="1124"/>
      <point x="685" y="1124" type="curve" smooth="yes"/>
      <point x="297" y="1124"/>
      <point x="249" y="746"/>
      <point x="249" y="746" type="curve"/>
    </contour>
  </outline>
</glyph>
<glyph name="i" format="2">
  <advance width="235" />
  <unicode hex="0069" />
  <outline>
    <contour>
      <point x="80" y="550" type="line" />
      <point x="80" y="1" type="line" />
      <point x="160" y="1" type="line" />
      <point x="160" y="550" type="line" />
    </contour>
    <contour>
      <point x="178" y="730" type="curve" smooth="yes" />
      <point x="178" y="769" />
      <point x="148" y="790" />
      <point x="120" y="790" type="curve" smooth="yes" />
      <point x="90" y="790" />
      <point x="62" y="769" />
      <point x="62" y="730" type="curve" smooth="yes" />
      <point x="62" y="691" />
      <point x="90" y="670" />
      <point x="120" y="670" type="curve" smooth="yes" />
      <point x="148" y="670" />
      <point x="178" y="691" />
    </contour>
  </outline>
</glyph>
<glyph name="k" format="2">
  <advance width="580" />
  <unicode hex="006B" />
  <outline>
    <contour>
      <point x="160" y="0" type="line" />
      <point x="80" y="0" type="line" />
      <point x="80" y="775" type="line" />
      <point x="160" y="775" type="line" />
    </contour>
    <contour>
      <point x="158" y="291" type="line" />
      <point x="419" y="550" type="line" />
      <point x="527" y="550" type="line" />
      <point x="250" y="275" type="line" />
      <point x="160" y="194" type="line" />
      <point x="111" y="194" type="line" />
    </contour>
    <contour>
      <point x="540" y="0" type="line" />
      <point x="433" y="0" type="line" />
      <point x="202" y="268" type="line" />
      <point x="259" y="320" type="line" />
    </contour>
  </outline>
</glyph>
<glyph name="l" format="2">
  <advance width="277" />
  <unicode hex="006C" />
  <guideline x="195" y="775" angle="95" identifier="fontra-guideline-0" />
  <outline>
    <contour>
      <point x="262" y="5" type="line" />
      <point x="262" y="5" />
      <point x="243" y="-5" />
      <point x="201" y="-5" type="curve" smooth="yes" />
      <point x="131" y="-5" />
      <point x="80" y="31" />
      <point x="80" y="115" type="curve" smooth="yes" />
      <point x="80" y="775" type="line" />
      <point x="160" y="775" type="line" />
      <point x="160" y="126" type="line" smooth="yes" />
      <point x="160" y="80" />
      <point x="183" y="67" />
      <point x="213" y="67" type="curve" smooth="yes" />
      <point x="243" y="67" />
      <point x="256" y="77" />
      <point x="256" y="77" type="curve" />
    </contour>
  </outline>
</glyph>
<glyph name="m" format="2">
  <advance width="943" />
  <unicode hex="006D" />
  <outline>
    <contour>
      <point x="75" y="550" type="line" />
      <point x="75" y="0" type="line" />
      <point x="155" y="0" type="line" />
      <point x="155" y="450" type="line" />
      <point x="147" y="550" type="line" />
    </contour>
    <contour>
      <point x="328" y="562" type="curve" smooth="yes" />
      <point x="147" y="562" />
      <point x="120" y="373" />
      <point x="120" y="373" type="curve" />
      <point x="155" y="317" type="line" />
      <point x="155" y="420" />
      <point x="224" y="490" />
      <point x="317" y="490" type="curve" smooth="yes" />
      <point x="396" y="490" />
      <point x="434" y="458" />
      <point x="434" y="359" type="curve" smooth="yes" />
      <point x="434" y="0" type="line" />
      <point x="514" y="0" type="line" />
      <point x="514" y="370" type="line" smooth="yes" />
      <point x="514" y="491" />
      <point x="446" y="562" />
    </contour>
    <contour>
      <point x="687" y="562" type="curve" smooth="yes" />
      <point x="506" y="562" />
      <point x="479" y="373" />
      <point x="479" y="373" type="curve" />
      <point x="514" y="317" type="line" />
      <point x="514" y="420" />
      <point x="583" y="490" />
      <point x="676" y="490" type="curve" smooth="yes" />
      <point x="755" y="490" />
      <point x="793" y="458" />
      <point x="793" y="359" type="curve" smooth="yes" />
      <point x="793" y="0" type="line" />
      <point x="873" y="0" type="line" />
      <point x="873" y="370" type="line" smooth="yes" />
      <point x="873" y="491" />
      <point x="805" y="562" />
    </contour>
  </outline>
</glyph>
<glyph name="n" format="2">
  <advance width="1218" />
  <unicode hex="006E" />
  <outline>
    <contour>
      <point x="150" y="1100" type="line" />
      <point x="150" y="0" type="line" />
      <point x="310" y="0" type="line" />
      <point x="310" y="900" type="line" />
      <point x="294" y="1100" type="line" />
    </contour>
    <contour>
      <point x="680" y="1124" type="curve" smooth="yes" />
      <point x="292" y="1124" />
      <point x="234" y="746" />
      <point x="234" y="746" type="curve" />
      <point x="310" y="634" type="line" />
      <point x="310" y="840" />
      <point x="456" y="980" />
      <point x="656" y="980" type="curve" smooth="yes" />
      <point x="826" y="980" />
      <point x="918" y="916" />
      <point x="918" y="718" type="curve" smooth="yes" />
      <point x="918" y="0" type="line" />
      <point x="1078" y="0" type="line" />
      <point x="1078" y="720" type="line" smooth="yes" />
      <point x="1078" y="982" />
      <point x="932" y="1124" />
    </contour>
  </outline>
</glyph>
<glyph name="o" format="2">
  <advance width="1220" />
  <unicode hex="006F" />
  <outline>
    <contour>
      <point x="610" y="-24" type="curve" smooth="yes" />
      <point x="342" y="-24" />
      <point x="110" y="154" />
      <point x="110" y="550" type="curve" smooth="yes" />
      <point x="110" y="946" />
      <point x="342" y="1124" />
      <point x="610" y="1124" type="curve" smooth="yes" />
      <point x="878" y="1124" />
      <point x="1110" y="946" />
      <point x="1110" y="550" type="curve" smooth="yes" />
      <point x="1110" y="154" />
      <point x="878" y="-24" />
    </contour>
    <contour>
      <point x="950" y="550" type="curve" smooth="yes" />
      <point x="950" y="820" />
      <point x="828" y="980" />
      <point x="610" y="980" type="curve" smooth="yes" />
      <point x="392" y="980" />
      <point x="270" y="820" />
      <point x="270" y="550" type="curve" smooth="yes" />
      <point x="270" y="280" />
      <point x="392" y="120" />
      <point x="610" y="120" type="curve" smooth="yes" />
      <point x="828" y="120" />
      <point x="950" y="280" />
    </contour>
  </outline>
</glyph>
<glyph name="p" format="2">
  <advance width="627" />
  <unicode hex="0070" />
  <outline>
    <contour>
      <point x="80" y="550" type="line" />
      <point x="80" y="-225" type="line" />
      <point x="160" y="-225" type="line" />
      <point x="160" y="105" type="line" />
      <point x="146" y="273" type="line" />
      <point x="161" y="450" type="line" />
      <point x="152" y="550" type="line" />
    </contour>
    <contour>
      <point x="339" y="562" type="curve" smooth="yes" />
      <point x="209" y="562" />
      <point x="108" y="485" />
      <point x="108" y="273" type="curve" smooth="yes" />
      <point x="108" y="65" />
      <point x="209" y="-12" />
      <point x="339" y="-12" type="curve" smooth="yes" />
      <point x="437" y="-12" />
      <point x="572" y="55" />
      <point x="572" y="273" type="curve" smooth="yes" />
      <point x="572" y="497" />
      <point x="437" y="562" />
    </contour>
    <contour>
      <point x="329" y="490" type="curve" smooth="yes" />
      <point x="434" y="490" />
      <point x="492" y="414" />
      <point x="492" y="273" type="curve" smooth="yes" />
      <point x="492" y="140" />
      <point x="434" y="60" />
      <point x="329" y="60" type="curve" smooth="yes" />
      <point x="224" y="60" />
      <point x="158" y="133" />
      <point x="158" y="273" type="curve" smooth="yes" />
      <point x="158" y="421" />
      <point x="225" y="490" />
    </contour>
  </outline>
</glyph>
<glyph name="q" format="2">
  <advance width="1244" />
  <unicode hex="0071" />
  <outline>
    <contour>
      <point x="950" y="1100" type="line" />
      <point x="932" y="900" type="line" />
      <point x="962" y="546" type="line" />
      <point x="934" y="210" type="line" />
      <point x="934" y="-450" type="line" />
      <point x="1094" y="-450" type="line" />
      <point x="1094" y="1100" type="line" />
    </contour>
    <contour>
      <point x="576" y="1124" type="curve" smooth="yes" />
      <point x="380" y="1124" />
      <point x="110" y="994" />
      <point x="110" y="546" type="curve" smooth="yes" />
      <point x="110" y="110" />
      <point x="380" y="-24" />
      <point x="576" y="-24" type="curve" smooth="yes" />
      <point x="836" y="-24" />
      <point x="1038" y="130" />
      <point x="1038" y="546" type="curve" smooth="yes" />
      <point x="1038" y="970" />
      <point x="836" y="1124" />
    </contour>
    <contour>
      <point x="596" y="980" type="curve" smooth="yes" />
      <point x="804" y="980" />
      <point x="938" y="842" />
      <point x="938" y="546" type="curve" smooth="yes" />
      <point x="938" y="266" />
      <point x="806" y="120" />
      <point x="596" y="120" type="curve" smooth="yes" />
      <point x="386" y="120" />
      <point x="270" y="280" />
      <point x="270" y="546" type="curve" smooth="yes" />
      <point x="270" y="828" />
      <point x="386" y="980" />
    </contour>
  </outline>
</glyph>
<glyph name="r" format="2">
  <advance width="816"/>
  <unicode hex="0072"/>
  <guideline x="740" y="550" angle="85" identifier="fontra-guideline-0"/>
  <anchor x="435" y="1100" name="top"/>
  <anchor x="234" y="0" name="bottom"/>
  <outline>
    <contour>
      <point x="144" y="1100" type="line"/>
      <point x="144" y="0" type="line"/>
      <point x="314" y="0" type="line"/>
      <point x="314" y="900" type="line"/>
      <point x="297" y="1100" type="line"/>
    </contour>
    <contour>
      <point x="632" y="1124" type="curve" smooth="yes"/>
      <point x="352" y="1124"/>
      <point x="236" y="852"/>
      <point x="236" y="654" type="curve"/>
      <point x="314" y="620" type="line"/>
      <point x="314" y="842"/>
      <point x="450" y="971"/>
      <point x="622" y="971" type="curve" smooth="yes"/>
      <point x="718" y="971"/>
      <point x="771" y="937"/>
      <point x="773" y="935" type="curve"/>
      <point x="786" y="1094" type="line"/>
      <point x="786" y="1094" type="line"/>
      <point x="784" y="1096"/>
      <point x="728" y="1124"/>
    </contour>
  </outline>
</glyph>
<glyph name="s" format="2">
  <advance width="534" />
  <unicode hex="0073" />
  <guideline x="280" y="275" angle="45" />
  <guideline x="280" y="275" angle="40" />
  <guideline x="280" y="275" angle="50" />
  <outline>
    <contour>
      <point x="472" y="484" type="curve" />
      <point x="418" y="439" type="line" />
      <point x="418" y="439" />
      <point x="380" y="490" />
      <point x="280" y="490" type="curve" smooth="yes" />
      <point x="190" y="490" />
      <point x="152" y="458" />
      <point x="152" y="400" type="curve" smooth="yes" />
      <point x="152" y="269" />
      <point x="484" y="360" />
      <point x="484" y="153" type="curve" smooth="yes" />
      <point x="484" y="47" />
      <point x="410" y="-12" />
      <point x="277" y="-12" type="curve" smooth="yes" />
      <point x="115" y="-12" />
      <point x="55" y="88" />
      <point x="55" y="88" type="curve" />
      <point x="111" y="130" type="line" />
      <point x="111" y="130" />
      <point x="160" y="60" />
      <point x="281" y="60" type="curve" smooth="yes" />
      <point x="356" y="60" />
      <point x="404" y="85" />
      <point x="404" y="150" type="curve" smooth="yes" />
      <point x="404" y="279" />
      <point x="72" y="190" />
      <point x="72" y="397" type="curve" smooth="yes" />
      <point x="72" y="499" />
      <point x="148" y="562" />
      <point x="275" y="562" type="curve" smooth="yes" />
      <point x="423" y="562" />
      <point x="472" y="484" />
    </contour>
  </outline>
</glyph>
<glyph name="t" format="2">
  <advance width="459" />
  <unicode hex="0074" />
  <guideline x="348" y="775" angle="95" name="-5deg" identifier="fontra-guideline-0" />
  <guideline x="5" y="694" angle="0" />
  <guideline x="5" y="670" angle="0" />
  <outline>
    <contour>
      <point x="40" y="550" type="line" />
      <point x="407" y="550" type="line" />
      <point x="407" y="478" type="line" />
      <point x="40" y="478" type="line" />
    </contour>
    <contour>
      <point x="221" y="694" type="line" />
      <point x="221" y="157" type="line" smooth="yes" />
      <point x="221" y="91" />
      <point x="251" y="66" />
      <point x="313" y="66" type="curve" smooth="yes" />
      <point x="378" y="66" />
      <point x="407" y="99" />
      <point x="407" y="99" type="curve" />
      <point x="414" y="23" type="line" />
      <point x="414" y="23" />
      <point x="376" y="-6" />
      <point x="308" y="-6" type="curve" smooth="yes" />
      <point x="190" y="-6" />
      <point x="141" y="59" />
      <point x="141" y="156" type="curve" smooth="yes" />
      <point x="141" y="550" type="line" />
      <point x="149" y="694" type="line" />
    </contour>
  </outline>
</glyph>
<glyph name="u" format="2">
  <advance width="1194"/>
  <unicode hex="0075"/>
  <outline>
    <contour>
      <point x="901" y="1100" type="line"/>
      <point x="901" y="200" type="line"/>
      <point x="917" y="0" type="line"/>
      <point x="1061" y="0" type="line"/>
      <point x="1061" y="1100" type="line"/>
    </contour>
    <contour>
      <point x="133" y="1100" type="line"/>
      <point x="133" y="390" type="line" smooth="yes"/>
      <point x="133" y="118"/>
      <point x="279" y="-24"/>
      <point x="531" y="-24" type="curve" smooth="yes"/>
      <point x="919" y="-24"/>
      <point x="977" y="354"/>
      <point x="977" y="354" type="curve"/>
      <point x="901" y="466" type="line"/>
      <point x="901" y="260"/>
      <point x="755" y="120"/>
      <point x="555" y="120" type="curve" smooth="yes"/>
      <point x="385" y="120"/>
      <point x="293" y="184"/>
      <point x="293" y="382" type="curve" smooth="yes"/>
      <point x="293" y="1100" type="line"/>
    </contour>
  </outline>
</glyph>
<glyph name="v" format="2">
  <advance width="1100"/>
  <unicode hex="0076"/>
  <outline>
    <contour>
      <point x="480" y="0" type="line"/>
      <point x="30" y="1100" type="line"/>
      <point x="227" y="1100" type="line"/>
      <point x="599" y="128" type="line"/>
      <point x="501" y="128" type="line"/>
      <point x="873" y="1100" type="line"/>
      <point x="1070" y="1100" type="line"/>
      <point x="620" y="0" type="line"/>
    </contour>
  </outline>
</glyph>
<glyph name="w" format="2">
  <advance width="1750" />
  <unicode hex="0077" />
  <outline>
    <contour>
      <point x="956" y="1100" type="line" />
      <point x="1256" y="128" type="line" />
      <point x="1206" y="128" type="line" />
      <point x="1516" y="1100" type="line" />
      <point x="1670" y="1100" type="line" />
      <point x="1298" y="0" type="line" />
      <point x="1168" y="0" type="line" />
      <point x="864" y="954" type="line" />
      <point x="896" y="954" type="line" />
      <point x="600" y="0" type="line" />
      <point x="470" y="0" type="line" />
      <point x="80" y="1100" type="line" />
      <point x="240" y="1100" type="line" />
      <point x="562" y="128" type="line" />
      <point x="512" y="128" type="line" />
      <point x="800" y="1100" type="line" />
    </contour>
  </outline>
</glyph>
<glyph name="x" format="2">
  <advance width="560" />
  <unicode hex="0078" />
  <outline>
    <contour>
      <point x="52" y="550" type="line" />
      <point x="249" y="257" type="line" />
      <point x="249" y="292" type="line" />
      <point x="40" y="0" type="line" />
      <point x="134" y="0" type="line" />
      <point x="294" y="231" type="line" />
      <point x="271" y="231" type="line" />
      <point x="427" y="0" type="line" />
      <point x="520" y="0" type="line" />
      <point x="315" y="292" type="line" />
      <point x="315" y="257" type="line" />
      <point x="508" y="550" type="line" />
      <point x="417" y="550" type="line" />
      <point x="271" y="320" type="line" />
      <point x="293" y="320" type="line" />
      <point x="144" y="550" type="line" />
    </contour>
  </outline>
</glyph>
<glyph name="y" format="2">
  <advance width="600" />
  <unicode hex="0079" />
  <outline>
    <contour>
      <point x="167" y="-225" type="line" />
      <point x="271" y="23" type="line" />
      <point x="271" y="-15" type="line" />
      <point x="40" y="550" type="line" />
      <point x="123" y="550" type="line" />
      <point x="308" y="64" type="line" />
      <point x="292" y="64" type="line" />
      <point x="478" y="550" type="line" />
      <point x="560" y="550" type="line" />
      <point x="243" y="-225" type="line" />
    </contour>
  </outline>
</glyph>
<glyph name="z" format="2">
  <advance width="520" />
  <unicode hex="007A" />
  <outline>
    <contour>
      <point x="50" y="550" type="line" />
      <point x="50" y="478" type="line" />
      <point x="383" y="478" type="line" />
      <point x="383" y="496" type="line" />
      <point x="40" y="60" type="line" />
      <point x="40" y="0" type="line" />
      <point x="480" y="0" type="line" />
      <point x="480" y="72" type="line" />
      <point x="131" y="72" type="line" />
      <point x="131" y="54" type="line" />
      <point x="474" y="490" type="line" />
      <point x="474" y="550" type="line" />
    </contour>
  </outline>
</glyph>
<glyph name="braceleft" format="2">
  <advance width="380" />
  <unicode hex="007B" />
  <guideline x="260" y="307" angle="105" name="l" identifier="fontra-guideline-0" />
  <guideline x="214" y="307" angle="75" name="r" identifier="fontra-guideline-1" />
  <guideline x="181" y="307" angle="105" identifier="fontra-guideline-2" />
  <outline>
    <contour>
      <point x="321" y="705" type="curve" />
      <point x="340" y="777" type="line" />
      <point x="340" y="777" />
      <point x="305" y="793" />
      <point x="250" y="793" type="curve" smooth="yes" />
      <point x="164" y="793" />
      <point x="97" y="743" />
      <point x="97" y="655" type="curve" smooth="yes" />
      <point x="97" y="572" />
      <point x="158" y="471" />
      <point x="158" y="386" type="curve" smooth="yes" />
      <point x="158" y="355" />
      <point x="151" y="347" />
      <point x="123" y="347" type="curve" smooth="yes" />
      <point x="65" y="347" type="line" />
      <point x="65" y="311" type="line" />
      <point x="150" y="311" type="line" />
      <point x="210" y="311" />
      <point x="230" y="341" />
      <point x="230" y="387" type="curve" smooth="yes" />
      <point x="230" y="462" />
      <point x="177" y="552" />
      <point x="177" y="643" type="curve" smooth="yes" />
      <point x="177" y="694" />
      <point x="205" y="721" />
      <point x="257" y="721" type="curve" smooth="yes" />
      <point x="297" y="721" />
      <point x="319" y="706" />
    </contour>
    <contour>
      <point x="321" y="-83" type="curve" />
      <point x="340" y="-155" type="line" />
      <point x="340" y="-155" />
      <point x="305" y="-171" />
      <point x="250" y="-171" type="curve" smooth="yes" />
      <point x="164" y="-171" />
      <point x="97" y="-121" />
      <point x="97" y="-33" type="curve" smooth="yes" />
      <point x="97" y="50" />
      <point x="158" y="151" />
      <point x="158" y="236" type="curve" smooth="yes" />
      <point x="158" y="267" />
      <point x="151" y="275" />
      <point x="123" y="275" type="curve" smooth="yes" />
      <point x="65" y="275" type="line" />
      <point x="65" y="311" type="line" />
      <point x="150" y="311" type="line" />
      <point x="210" y="311" />
      <point x="230" y="281" />
      <point x="230" y="235" type="curve" smooth="yes" />
      <point x="230" y="160" />
      <point x="177" y="70" />
      <point x="177" y="-21" type="curve" smooth="yes" />
      <point x="177" y="-72" />
      <point x="205" y="-99" />
      <point x="257" y="-99" type="curve" smooth="yes" />
      <point x="297" y="-99" />
      <point x="319" y="-84" />
    </contour>
  </outline>
</glyph>
<glyph name="bar" format="2">
  <advance width="320"/>
  <unicode hex="007C"/>
  <outline>
    <contour>
      <point x="200" y="791" type="line"/>
      <point x="200" y="-186" type="line"/>
      <point x="120" y="-186" type="line"/>
      <point x="120" y="791" type="line"/>
    </contour>
  </outline>
</glyph>
<glyph name="braceright" format="2">
  <advance width="382"/>
  <unicode hex="007D"/>
  <outline>
    <contour>
      <point x="71" y="691" type="line"/>
      <point x="71" y="691"/>
      <point x="93" y="709"/>
      <point x="132" y="709" type="curve" smooth="yes"/>
      <point x="179" y="709"/>
      <point x="206" y="689"/>
      <point x="206" y="631" type="curve" smooth="yes"/>
      <point x="206" y="523"/>
      <point x="79" y="307"/>
      <point x="237" y="307" type="curve" smooth="yes"/>
      <point x="322" y="307" type="line"/>
      <point x="322" y="343" type="line"/>
      <point x="294" y="343" type="line" smooth="yes"/>
      <point x="153" y="343"/>
      <point x="286" y="510"/>
      <point x="286" y="633" type="curve" smooth="yes"/>
      <point x="286" y="741"/>
      <point x="223" y="781"/>
      <point x="137" y="781" type="curve" smooth="yes"/>
      <point x="73" y="781"/>
      <point x="40" y="756"/>
      <point x="40" y="756" type="curve"/>
    </contour>
    <contour>
      <point x="71" y="-77" type="line"/>
      <point x="71" y="-77"/>
      <point x="93" y="-95"/>
      <point x="132" y="-95" type="curve" smooth="yes"/>
      <point x="179" y="-95"/>
      <point x="206" y="-75"/>
      <point x="206" y="-17" type="curve" smooth="yes"/>
      <point x="206" y="91"/>
      <point x="79" y="307"/>
      <point x="237" y="307" type="curve" smooth="yes"/>
      <point x="322" y="307" type="line"/>
      <point x="322" y="271" type="line"/>
      <point x="294" y="271" type="line" smooth="yes"/>
      <point x="153" y="271"/>
      <point x="286" y="104"/>
      <point x="286" y="-19" type="curve" smooth="yes"/>
      <point x="286" y="-127"/>
      <point x="223" y="-167"/>
      <point x="137" y="-167" type="curve" smooth="yes"/>
      <point x="73" y="-167"/>
      <point x="40" y="-142"/>
      <point x="40" y="-142" type="curve"/>
    </contour>
  </outline>
</glyph>
<glyph name="asciitilde" format="2">
  <advance width="1168"/>
  <unicode hex="007E"/>
  <outline>
    <contour>
      <point x="360" y="694" type="curve" smooth="yes"/>
      <point x="160" y="694"/>
      <point x="120" y="550"/>
      <point x="120" y="430" type="curve"/>
      <point x="236" y="430" type="line"/>
      <point x="240" y="510"/>
      <point x="266" y="554"/>
      <point x="356" y="554" type="curve" smooth="yes"/>
      <point x="486" y="554"/>
      <point x="628" y="406"/>
      <point x="808" y="406" type="curve" smooth="yes"/>
      <point x="1008" y="406"/>
      <point x="1048" y="550"/>
      <point x="1048" y="670" type="curve"/>
      <point x="932" y="670" type="line"/>
      <point x="928" y="590"/>
      <point x="902" y="546"/>
      <point x="812" y="546" type="curve" smooth="yes"/>
      <point x="682" y="546"/>
      <point x="540" y="694"/>
    </contour>
  </outline>
</glyph>
<glyph name="degree" format="2">
  <advance width="397" />
  <unicode hex="00B0" />
  <guideline x="5" y="478" angle="0" />
  <outline>
    <contour>
      <point x="357" y="631" type="curve" smooth="yes" />
      <point x="357" y="737" />
      <point x="274" y="793" />
      <point x="197" y="793" type="curve" smooth="yes" />
      <point x="117" y="793" />
      <point x="40" y="737" />
      <point x="40" y="631" type="curve" smooth="yes" />
      <point x="40" y="524" />
      <point x="117" y="466" />
      <point x="197" y="466" type="curve" smooth="yes" />
      <point x="274" y="466" />
      <point x="357" y="524" />
    </contour>
    <contour>
      <point x="277" y="631" type="curve" smooth="yes" />
      <point x="277" y="570" />
      <point x="236" y="538" />
      <point x="198" y="538" type="curve" smooth="yes" />
      <point x="158" y="538" />
      <point x="120" y="570" />
      <point x="120" y="631" type="curve" smooth="yes" />
      <point x="120" y="689" />
      <point x="158" y="721" />
      <point x="198" y="721" type="curve" smooth="yes" />
      <point x="236" y="721" />
      <point x="277" y="689" />
    </contour>
  </outline>
</glyph>
<glyph name="multiply" format="2">
  <advance width="1144" />
  <unicode hex="00D7" />
  <outline>
    <contour>
      <point x="140" y="364" type="line" />
      <point x="242" y="262" type="line" />
      <point x="1004" y="1024" type="line" />
      <point x="902" y="1126" type="line" />
    </contour>
    <contour>
      <point x="242" y="1126" type="line" />
      <point x="140" y="1024" type="line" />
      <point x="902" y="262" type="line" />
      <point x="1004" y="364" type="line" />
    </contour>
  </outline>
</glyph>
<glyph name="germandbls" format="2">
  <advance width="1255"/>
  <unicode hex="00DF"/>
  <guideline x="643" y="1408" angle="80.27242144859838"/>
  <guideline x="738" y="1408" angle="80.27242144859838"/>
  <outline>
    <contour>
      <point x="489" y="1586" type="curve" smooth="yes"/>
      <point x="275" y="1586"/>
      <point x="155" y="1470"/>
      <point x="155" y="1226" type="curve"/>
      <point x="155" y="0" type="line"/>
      <point x="325" y="0" type="line"/>
      <point x="325" y="1230" type="line"/>
      <point x="325" y="1390"/>
      <point x="391" y="1433"/>
      <point x="500" y="1433" type="curve" smooth="yes"/>
      <point x="594" y="1433"/>
      <point x="642" y="1400"/>
      <point x="642" y="1400" type="curve"/>
      <point x="667" y="1548" type="line"/>
      <point x="667" y="1548"/>
      <point x="607" y="1586"/>
    </contour>
    <contour>
      <point x="287" y="1100" type="move"/>
      <point x="285" y="1100" type="line"/>
    </contour>
    <contour>
      <point x="287" y="947" type="move"/>
    </contour>
    <contour>
      <point x="471" y="-146" type="line"/>
      <point x="475" y="-148"/>
      <point x="576" y="-197"/>
      <point x="744" y="-197" type="curve" smooth="yes"/>
      <point x="1030" y="-197"/>
      <point x="1195" y="-28"/>
      <point x="1195" y="207" type="curve" smooth="yes"/>
      <point x="1195" y="457"/>
      <point x="989" y="629"/>
      <point x="723" y="599" type="curve"/>
      <point x="763" y="576" type="line"/>
      <point x="1143" y="940" type="line"/>
      <point x="1143" y="1100" type="line"/>
      <point x="287" y="1100" type="line"/>
      <point x="287" y="947" type="line"/>
      <point x="998" y="947" type="line"/>
      <point x="998" y="1003" type="line"/>
      <point x="565" y="576" type="line"/>
      <point x="565" y="463" type="line"/>
      <point x="566" y="464"/>
      <point x="611" y="485"/>
      <point x="688" y="487" type="curve" smooth="yes"/>
      <point x="921" y="492"/>
      <point x="1025" y="396"/>
      <point x="1025" y="219" type="curve" smooth="yes"/>
      <point x="1025" y="50"/>
      <point x="923" y="-44"/>
      <point x="735" y="-44" type="curve" smooth="yes"/>
      <point x="580" y="-44"/>
      <point x="496" y="-1"/>
      <point x="495" y="0" type="curve"/>
    </contour>
  </outline>
</glyph>
<glyph name="aacute" format="2">
  <advance width="585" />
  <unicode hex="00E1" />
  <outline>
    <contour>
      <point x="263" y="642" type="line" />
      <point x="335" y="642" type="line" />
      <point x="483" y="793" type="line" />
      <point x="383" y="793" type="line" />
    </contour>
    <component base="a" xOffset="5" />
  </outline>
</glyph>
<glyph name="ccedilla" format="2">
  <advance width="576" />
  <unicode hex="00E7" />
  <guideline x="155" y="550" angle="90" name="cedilla left" identifier="fontra-guideline-0" />
  <guideline x="415" y="550" angle="90" name="right cedilla" identifier="fontra-guideline-1" />
  <guideline x="155" y="-225" angle="75" name="left diag" identifier="fontra-guideline-2" />
  <guideline x="415" y="-225" angle="105" name="right diag" identifier="fontra-guideline-3" />
  <guideline x="285" y="270" angle="90" name="center" identifier="fontra-guideline-4" />
  <outline>
    <contour>
      <point x="270" y="-7" type="curve" />
      <point x="270" y="43" type="line" />
      <point x="271" y="43" />
      <point x="426" y="0" />
      <point x="426" y="-110" type="curve" smooth="yes" />
      <point x="426" y="-180" />
      <point x="370" y="-227" />
      <point x="285" y="-227" type="curve" smooth="yes" />
      <point x="200" y="-227" />
      <point x="163" y="-196" />
      <point x="163" y="-196" type="curve" />
      <point x="182" y="-125" type="line" />
      <point x="182" y="-125" />
      <point x="219" y="-155" />
      <point x="276" y="-155" type="curve" smooth="yes" />
      <point x="325" y="-155" />
      <point x="349" y="-135" />
      <point x="349" y="-100" type="curve" smooth="yes" />
      <point x="349" y="-31" />
      <point x="271" y="-7" />
    </contour>
    <component base="c" xOffset="5" />
  </outline>
</glyph>
<glyph name="eacute" format="2">
  <advance width="1146" />
  <unicode hex="00E9" />
  <outline>
    <contour>
      <point x="526" y="1284" type="line" />
      <point x="670" y="1284" type="line" />
      <point x="966" y="1586" type="line" />
      <point x="766" y="1586" type="line" />
    </contour>
    <component base="e" xOffset="10" />
  </outline>
</glyph>
<glyph name="ntilde" format="2">
  <advance width="609" />
  <unicode hex="00F1" />
  <outline>
    <contour>
      <point x="216" y="765" type="curve" smooth="yes" />
      <point x="161" y="765" />
      <point x="121" y="720" />
      <point x="121" y="660" type="curve" />
      <point x="186" y="660" type="line" />
      <point x="186" y="685" />
      <point x="201" y="700" />
      <point x="231" y="700" type="curve" smooth="yes" />
      <point x="277" y="700" />
      <point x="326" y="656" />
      <point x="396" y="656" type="curve" smooth="yes" />
      <point x="451" y="656" />
      <point x="491" y="701" />
      <point x="491" y="761" type="curve" />
      <point x="426" y="761" type="line" />
      <point x="426" y="736" />
      <point x="411" y="721" />
      <point x="381" y="721" type="curve" smooth="yes" />
      <point x="334" y="721" />
      <point x="286" y="765" />
    </contour>
    <component base="n" xOffset="5" />
  </outline>
</glyph>
<glyph name="idotless" format="2">
  <advance width="469"/>
  <unicode hex="0131"/>
  <anchor x="244" y="1100" name="top"/>
  <anchor x="244" y="0" name="bottom"/>
  <outline>
    <contour>
      <point x="155" y="0" type="line"/>
      <point x="325" y="0" type="line"/>
      <point x="325" y="1100" type="line"/>
      <point x="155" y="1100" type="line"/>
    </contour>
  </outline>
</glyph>
<glyph name="jdotless" format="2">
  <advance width="458"/>
  <unicode hex="0237"/>
  <anchor x="224" y="1100" name="top"/>
  <anchor x="153" y="-450" name="bottom"/>
  <outline>
    <contour>
      <point x="144" y="1100" type="line"/>
      <point x="144" y="-191" type="line" smooth="yes"/>
      <point x="144" y="-283"/>
      <point x="98" y="-309"/>
      <point x="38" y="-309" type="curve" smooth="yes"/>
      <point x="-22" y="-309"/>
      <point x="-47" y="-289"/>
      <point x="-47" y="-289" type="curve"/>
      <point x="-60" y="-442" type="line"/>
      <point x="-60" y="-442"/>
      <point x="-22" y="-462"/>
      <point x="82" y="-462" type="curve" smooth="yes"/>
      <point x="202" y="-462"/>
      <point x="314" y="-390"/>
      <point x="314" y="-222" type="curve" smooth="yes"/>
      <point x="314" y="1100" type="line"/>
    </contour>
  </outline>
</glyph>
<glyph name="dotaccentcomb" format="2">
  <advance width="292"/>
  <unicode hex="0307"/>
  <outline>
    <contour>
      <point x="262" y="1460" type="curve" smooth="yes"/>
      <point x="262" y="1538"/>
      <point x="202" y="1580"/>
      <point x="146" y="1580" type="curve" smooth="yes"/>
      <point x="86" y="1580"/>
      <point x="30" y="1538"/>
      <point x="30" y="1460" type="curve" smooth="yes"/>
      <point x="30" y="1382"/>
      <point x="86" y="1340"/>
      <point x="146" y="1340" type="curve" smooth="yes"/>
      <point x="202" y="1340"/>
      <point x="262" y="1382"/>
    </contour>
  </outline>
</glyph>
<glyph name="ge-cy" format="2">
  <advance width="918"/>
  <unicode hex="0433"/>
  <outline>
    <contour>
      <point x="144" y="0" type="line"/>
      <point x="314" y="0" type="line"/>
      <point x="314" y="1024" type="line"/>
      <point x="229" y="947" type="line"/>
      <point x="865" y="947" type="line"/>
      <point x="865" y="1100" type="line"/>
      <point x="144" y="1100" type="line"/>
    </contour>
  </outline>
</glyph>
<glyph name="Germandbls" format="2">
  <advance width="1290"/>
  <unicode hex="1E9E"/>
  <outline>
    <contour>
      <point x="145" y="1480" type="line"/>
      <point x="145" y="0" type="line"/>
      <point x="325" y="0" type="line"/>
      <point x="325" y="1480" type="line"/>
    </contour>
    <contour>
      <point x="287" y="1100" type="move"/>
      <point x="285" y="1100" type="line"/>
    </contour>
    <contour>
      <point x="287" y="947" type="move"/>
    </contour>
    <contour>
      <point x="495" y="14" type="line"/>
      <point x="499" y="13"/>
      <point x="612" y="-27"/>
      <point x="760" y="-27" type="curve" smooth="yes"/>
      <point x="1083" y="-27"/>
      <point x="1235" y="212"/>
      <point x="1235" y="407" type="curve" smooth="yes"/>
      <point x="1235" y="637"/>
      <point x="1027" y="869"/>
      <point x="723" y="849" type="curve"/>
      <point x="763" y="806" type="line"/>
      <point x="1103" y="1310" type="line"/>
      <point x="1103" y="1480" type="line"/>
      <point x="287" y="1480" type="line"/>
      <point x="287" y="1317" type="line"/>
      <point x="890" y="1317" type="line"/>
      <point x="555" y="806" type="line"/>
      <point x="555" y="676" type="line"/>
      <point x="561" y="676"/>
      <point x="621" y="702"/>
      <point x="728" y="702" type="curve" smooth="yes"/>
      <point x="971" y="702"/>
      <point x="1055" y="536"/>
      <point x="1055" y="404" type="curve" smooth="yes"/>
      <point x="1055" y="280"/>
      <point x="959" y="126"/>
      <point x="750" y="126" type="curve" smooth="yes"/>
      <point x="596" y="126"/>
      <point x="496" y="169"/>
      <point x="495" y="170" type="curve"/>
    </contour>
    <contour>
      <point x="195" y="-151" type="line"/>
      <point x="222" y="-159" type="line"/>
      <point x="248" y="-194" type="line"/>
      <point x="275" y="-157" type="line"/>
      <point x="308" y="-190" type="line"/>
      <point x="339" y="-151" type="line"/>
      <point x="389" y="-163" type="line"/>
      <point x="325" y="-239" type="line"/>
      <point x="283" y="-208" type="line"/>
      <point x="248" y="-250" type="line"/>
    </contour>
    <contour>
      <point x="428" y="-167" type="line"/>
      <point x="422" y="-235" type="line"/>
      <point x="446" y="-237" type="line"/>
      <point x="463" y="-155" type="line"/>
    </contour>
    <contour>
      <point x="521" y="-167" type="line"/>
      <point x="523" y="-250" type="line"/>
      <point x="562" y="-250" type="line"/>
      <point x="554" y="-215" type="line"/>
      <point x="607" y="-217" type="line"/>
      <point x="611" y="-198" type="line"/>
      <point x="599" y="-175" type="line"/>
    </contour>
    <contour>
      <point x="544" y="-183" type="line"/>
      <point x="580" y="-186" type="line"/>
      <point x="583" y="-202" type="line"/>
      <point x="543" y="-200" type="line"/>
    </contour>
  </outline>
</glyph>
<glyph name="endash" format="2">
  <advance width="544" />
  <unicode hex="2013" />
  <outline>
    <contour>
      <point x="40" y="320" type="line" />
      <point x="40" y="255" type="line" />
      <point x="504" y="255" type="line" />
      <point x="504" y="320" type="line" />
    </contour>
  </outline>
</glyph>
<glyph name="emdash" format="2">
  <advance width="872" />
  <unicode hex="2014" />
  <outline>
    <contour>
      <point x="40" y="320" type="line" />
      <point x="40" y="255" type="line" />
      <point x="832" y="255" type="line" />
      <point x="832" y="320" type="line" />
    </contour>
  </outline>
</glyph>
<glyph name="ellipsis" format="2">
  <advance width="658" />
  <unicode hex="2026" />
  <outline>
    <contour>
      <point x="191" y="44" type="curve" smooth="yes" />
      <point x="191" y="5" />
      <point x="161" y="-16" />
      <point x="133" y="-16" type="curve" smooth="yes" />
      <point x="103" y="-16" />
      <point x="75" y="5" />
      <point x="75" y="44" type="curve" smooth="yes" />
      <point x="75" y="83" />
      <point x="103" y="104" />
      <point x="133" y="104" type="curve" smooth="yes" />
      <point x="161" y="104" />
      <point x="191" y="83" />
    </contour>
    <contour>
      <point x="387" y="44" type="curve" smooth="yes" />
      <point x="387" y="5" />
      <point x="357" y="-16" />
      <point x="329" y="-16" type="curve" smooth="yes" />
      <point x="299" y="-16" />
      <point x="271" y="5" />
      <point x="271" y="44" type="curve" smooth="yes" />
      <point x="271" y="83" />
      <point x="299" y="104" />
      <point x="329" y="104" type="curve" smooth="yes" />
      <point x="357" y="104" />
      <point x="387" y="83" />
    </contour>
    <contour>
      <point x="583" y="44" type="curve" smooth="yes" />
      <point x="583" y="5" />
      <point x="553" y="-16" />
      <point x="525" y="-16" type="curve" smooth="yes" />
      <point x="495" y="-16" />
      <point x="467" y="5" />
      <point x="467" y="44" type="curve" smooth="yes" />
      <point x="467" y="83" />
      <point x="495" y="104" />
      <point x="525" y="104" type="curve" smooth="yes" />
      <point x="553" y="104" />
      <point x="583" y="83" />
    </contour>
  </outline>
</glyph>
<glyph name="minus" format="2">
  <advance width="580" />
  <unicode hex="2212" />
  <outline>
    <contour>
      <point x="75" y="383" type="line" />
      <point x="505" y="383" type="line" />
      <point x="505" y="311" type="line" />
      <point x="75" y="311" type="line" />
    </contour>
  </outline>
</glyph>
<glyph name="fi" format="2">
  <advance width="676" />
  <unicode hex="FB01" />
  <outline>
    <contour>
      <point x="60" y="550" type="line" />
      <point x="528" y="550" type="line" />
      <point x="528" y="478" type="line" />
      <point x="60" y="478" type="line" />
    </contour>
    <contour>
      <point x="241" y="0" type="line" />
      <point x="161" y="0" type="line" />
      <point x="161" y="595" type="line" />
      <point x="161" y="700" />
      <point x="230" y="793" />
      <point x="368" y="793" type="curve" smooth="yes" />
      <point x="513" y="793" />
      <point x="574" y="699" />
      <point x="574" y="699" type="curve" />
      <point x="515" y="653" type="line" />
      <point x="515" y="653" />
      <point x="466" y="719" />
      <point x="369" y="719" type="curve" smooth="yes" />
      <point x="286" y="719" />
      <point x="241" y="679" />
      <point x="241" y="586" type="curve" />
    </contour>
    <contour>
      <point x="503" y="550" type="line" />
      <point x="583" y="550" type="line" />
      <point x="583" y="0" type="line" />
      <point x="503" y="0" type="line" />
    </contour>
  </outline>
</glyph>
<glyph name="germandbls.antiqua" format="2">
  <advance width="1255"/>
  <guideline x="643" y="1408" angle="80.27242144859838"/>
  <guideline x="738" y="1408" angle="80.27242144859838"/>
  <outline>
    <contour>
      <point x="489" y="1586" type="curve" smooth="yes"/>
      <point x="275" y="1586"/>
      <point x="155" y="1470"/>
      <point x="155" y="1226" type="curve"/>
      <point x="155" y="0" type="line"/>
      <point x="325" y="0" type="line"/>
      <point x="325" y="1230" type="line"/>
      <point x="325" y="1390"/>
      <point x="391" y="1433"/>
      <point x="500" y="1433" type="curve" smooth="yes"/>
      <point x="594" y="1433"/>
      <point x="642" y="1400"/>
      <point x="642" y="1400" type="curve"/>
      <point x="667" y="1548" type="line"/>
      <point x="667" y="1548"/>
      <point x="607" y="1586"/>
    </contour>
    <contour>
      <point x="287" y="1100" type="move"/>
      <point x="285" y="1100" type="line"/>
    </contour>
    <contour>
      <point x="287" y="947" type="move"/>
    </contour>
    <contour>
      <point x="471" y="-146" type="line"/>
      <point x="475" y="-148"/>
      <point x="576" y="-197"/>
      <point x="744" y="-197" type="curve" smooth="yes"/>
      <point x="1030" y="-197"/>
      <point x="1195" y="-23"/>
      <point x="1195" y="212" type="curve" smooth="yes"/>
      <point x="1195" y="462"/>
      <point x="989" y="629"/>
      <point x="723" y="599" type="curve"/>
      <point x="763" y="576" type="line"/>
      <point x="1143" y="970" type="line"/>
      <point x="1143" y="1100" type="line"/>
      <point x="287" y="1100" type="line"/>
      <point x="287" y="947" type="line"/>
      <point x="998" y="947" type="line"/>
      <point x="998" y="1003" type="line"/>
      <point x="565" y="576" type="line"/>
      <point x="565" y="463" type="line"/>
      <point x="566" y="464"/>
      <point x="601" y="481"/>
      <point x="698" y="483" type="curve" smooth="yes"/>
      <point x="921" y="488"/>
      <point x="1025" y="401"/>
      <point x="1025" y="224" type="curve" smooth="yes"/>
      <point x="1025" y="55"/>
      <point x="923" y="-44"/>
      <point x="735" y="-44" type="curve" smooth="yes"/>
      <point x="580" y="-44"/>
      <point x="496" y="-1"/>
      <point x="495" y="0" type="curve"/>
    </contour>
  </outline>
</glyph>
